  0
SECTION
  2
HEADER
  9
$ACADVER
  1
AC1014
  9
$HANDSEED
  5
FFFF
  9
$MEASUREMENT
 70
     1
  0
ENDSEC
  0
SECTION
  2
TABLES
  0
TABLE
  2
VPORT
  5
8
330
0
100
AcDbSymbolTable
 70
     4
  0
VPORT
  5
2E
330
8
100
AcDbSymbolTableRecord
100
AcDbViewportTableRecord
  2
*ACTIVE
 70
     0
 10
0.0
 20
0.0
 11
1.0
 21
1.0
 12
210.0
 22
148.5
 13
0.0
 23
0.0
 14
10.0
 24
10.0
 15
10.0
 25
10.0
 16
0.0
 26
0.0
 36
1.0
 17
0.0
 27
0.0
 37
0.0
 40
341.0
 41
1.24
 42
50.0
 43
0.0
 44
0.0
 50
0.0
 51
0.0
 71
     0
 72
   100
 73
     1
 74
     3
 75
     0
 76
     0
 77
     0
 78
     0
  0
ENDTAB
  0
TABLE
  2
LTYPE
  5
5
330
0
100
AcDbSymbolTable
 70
     1
  0
LTYPE
  5
14
330
5
100
AcDbSymbolTableRecord
100
AcDbLinetypeTableRecord
  2
BYBLOCK
 70
     0
  3

 72
    65
 73
     0
 40
0.0
  0
LTYPE
  5
15
330
5
100
AcDbSymbolTableRecord
100
AcDbLinetypeTableRecord
  2
BYLAYER
 70
     0
  3

 72
    65
 73
     0
 40
0.0
  0
LTYPE
  5
16
330
5
100
AcDbSymbolTableRecord
100
AcDbLinetypeTableRecord
  2
CONTINUOUS
 70
     0
  3
Solid line
 72
    65
 73
     0
 40
0.0
  0
ENDTAB
  0
TABLE
  2
LAYER
  5
2
100
AcDbSymbolTable
 70
1
  0
LAYER
  5
50
100
AcDbSymbolTableRecord
100
AcDbLayerTableRecord
  2
0
 70
0
  6
CONTINUOUS
  0
ENDTAB
  0
TABLE
  2
STYLE
  5
3
330
0
100
AcDbSymbolTable
 70
     1
  0
STYLE
  5
11
330
3
100
AcDbSymbolTableRecord
100
AcDbTextStyleTableRecord
  2
STANDARD
 70
     0
 40
0.0
 41
1.0
 50
0.0
 71
     0
 42
2.5
  3
txt
  4

  0
ENDTAB
  0
TABLE
  2
VIEW
  5
6
330
0
100
AcDbSymbolTable
 70
     0
  0
ENDTAB
  0
TABLE
  2
UCS
  5
7
330
0
100
AcDbSymbolTable
 70
     0
  0
ENDTAB
  0
TABLE
  2
APPID
  5
9
330
0
100
AcDbSymbolTable
 70
     2
  0
APPID
  5
12
330
9
100
AcDbSymbolTableRecord
100
AcDbRegAppTableRecord
  2
ACAD
 70
     0
  0
ENDTAB
  0
TABLE
  2
DIMSTYLE
  5
A
330
0
100
AcDbSymbolTable
 70
     1
  0
DIMSTYLE
105
27
330
A
100
AcDbSymbolTableRecord
100
AcDbDimStyleTableRecord
  2
ISO-25
 70
     0
  3

  4

  5

  6

  7

 40
1.0
 41
2.5
 42
0.625
 43
3.75
 44
1.25
 45
0.0
 46
0.0
 47
0.0
 48
0.0
140
2.5
141
2.5
142
0.0
143
0.03937007874016
144
1.0
145
0.0
146
1.0
147
0.625
 71
     0
 72
     0
 73
     0
 74
     0
 75
     0
 76
     0
 77
     1
 78
     8
170
     0
171
     3
172
     1
173
     0
174
     0
175
     0
176
     0
177
     0
178
     0
270
     2
271
     2
272
     2
273
     2
274
     3
340
11
275
     0
280
     0
281
     0
282
     0
283
     0
284
     8
285
     0
286
     0
287
     3
288
     0
  0
ENDTAB
  0
TABLE
  2
BLOCK_RECORD
  5
1
330
0
100
AcDbSymbolTable
 70
     1
  0
BLOCK_RECORD
  5
1F
330
1
100
AcDbSymbolTableRecord
100
AcDbBlockTableRecord
  2
*MODEL_SPACE
  0
BLOCK_RECORD
  5
1B
330
1
100
AcDbSymbolTableRecord
100
AcDbBlockTableRecord
  2
*PAPER_SPACE
  0
ENDTAB
  0
ENDSEC
  0
SECTION
  2
BLOCKS
  0
BLOCK
  5
20
330
1F
100
AcDbEntity
  8
0
100
AcDbBlockBegin
  2
*MODEL_SPACE
 70
     0
 10
0.0
 20
0.0
 30
0.0
  3
*MODEL_SPACE
  1

  0
ENDBLK
  5
21
330
1F
100
AcDbEntity
  8
0
100
AcDbBlockEnd
  0
BLOCK
  5
1C
330
1B
100
AcDbEntity
 67
     1
  8
0
100
AcDbBlockBegin
  2
*PAPER_SPACE
  1

  0
ENDBLK
  5
1D
330
1B
100
AcDbEntity
 67
     1
  8
0
100
AcDbBlockEnd
  0
ENDSEC
  0
SECTION
  2
ENTITIES
  0
LWPOLYLINE
  5
100
100
AcDbEntity
  8
0
 62
7
100
AcDbPolyline
 90
2
 70
0
 10
40.066882
 20
32.619058
 30
0.0
 10
36.342973
 20
39.069071
 30
0.0
  0
LWPOLYLINE
  5
101
100
AcDbEntity
  8
0
 62
7
100
AcDbPolyline
 90
2
 70
0
 10
36.342973
 20
26.169072
 30
0.0
 10
40.066882
 20
32.619058
 30
0.0
  0
LWPOLYLINE
  5
102
100
AcDbEntity
  8
0
 62
7
100
AcDbPolyline
 90
2
 70
0
 10
28.895154
 20
26.169072
 30
0.0
 10
36.342973
 20
26.169072
 30
0.0
  0
LWPOLYLINE
  5
103
100
AcDbEntity
  8
0
 62
7
100
AcDbPolyline
 90
2
 70
0
 10
25.171245
 20
32.619058
 30
0.0
 10
28.895154
 20
26.169072
 30
0.0
  0
LWPOLYLINE
  5
104
100
AcDbEntity
  8
0
 62
7
100
AcDbPolyline
 90
2
 70
0
 10
28.895154
 20
39.069071
 30
0.0
 10
25.171245
 20
32.619058
 30
0.0
  0
SPLINE
  5
105
100
AcDbEntity
  8
0
 62
7
100
AcDbSpline
 70
8
 71
3
 72
8
 73
4
 74
0
 40
0
 40
0
 40
0
 40
0
 40
1
 40
1
 40
1
 40
1
 10
36.979922
 20
59.137902
 30
0.0
 10
37.248886
 20
59.093671
 30
0.0
 10
37.503719
 20
59.273017
 30
0.0
 10
37.552864
 20
59.541127
 30
0.0
  0
SPLINE
  5
106
100
AcDbEntity
  8
0
 62
7
100
AcDbSpline
 70
8
 71
3
 72
8
 73
4
 74
0
 40
0
 40
0
 40
0
 40
0
 40
1
 40
1
 40
1
 40
1
 10
36.979922
 20
59.137902
 30
0.0
 10
36.412628
 20
59.231186
 30
0.0
 10
35.842486
 20
59.306243
 30
0.0
 10
35.270377
 20
59.362956
 30
0.0
  0
SPLINE
  5
107
100
AcDbEntity
  8
0
 62
7
100
AcDbSpline
 70
8
 71
3
 72
8
 73
4
 74
0
 40
0
 40
0
 40
0
 40
0
 40
1
 40
1
 40
1
 40
1
 10
34.821325
 20
59.900749
 30
0.0
 10
34.799392
 20
59.629050
 30
0.0
 10
34.999124
 20
59.389848
 30
0.0
 10
35.270377
 20
59.362956
 30
0.0
  0
LWPOLYLINE
  5
108
100
AcDbEntity
  8
0
 62
7
100
AcDbPolyline
 90
2
 70
0
 10
36.342973
 20
39.069071
 30
0.0
 10
28.895154
 20
39.069071
 30
0.0
  0
SPLINE
  5
109
100
AcDbEntity
  8
0
 62
7
100
AcDbSpline
 70
8
 71
3
 72
8
 73
4
 74
0
 40
0
 40
0
 40
0
 40
0
 40
1
 40
1
 40
1
 40
1
 10
34.887331
 20
60.718443
 30
0.0
 10
34.893454
 20
60.966040
 30
0.0
 10
34.868016
 20
61.213082
 30
0.0
 10
34.830057
 20
61.457848
 30
0.0
  0
SPLINE
  5
10a
100
AcDbEntity
  8
0
 62
7
100
AcDbSpline
 70
8
 71
3
 72
8
 73
4
 74
0
 40
0
 40
0
 40
0
 40
0
 40
1
 40
1
 40
1
 40
1
 10
34.830057
 20
61.457848
 30
0.0
 10
34.782614
 20
61.763812
 30
0.0
 10
34.715614
 20
62.066231
 30
0.0
 10
34.634685
 20
62.364787
 30
0.0
  0
SPLINE
  5
10b
100
AcDbEntity
  8
0
 62
7
100
AcDbSpline
 70
8
 71
3
 72
8
 73
4
 74
0
 40
0
 40
0
 40
0
 40
0
 40
1
 40
1
 40
1
 40
1
 10
34.634685
 20
62.364787
 30
0.0
 10
34.375715
 20
63.320144
 30
0.0
 10
33.974124
 20
64.235761
 30
0.0
 10
33.509460
 20
65.106862
 30
0.0
  0
SPLINE
  5
10c
100
AcDbEntity
  8
0
 62
7
100
AcDbSpline
 70
8
 71
3
 72
8
 73
4
 74
0
 40
0
 40
0
 40
0
 40
0
 40
1
 40
1
 40
1
 40
1
 10
33.509460
 20
65.106862
 30
0.0
 10
32.915974
 20
65.123128
 30
0.0
 10
32.322154
 20
65.123128
 30
0.0
 10
31.728668
 20
65.106862
 30
0.0
  0
SPLINE
  5
10d
100
AcDbEntity
  8
0
 62
7
100
AcDbSpline
 70
8
 71
3
 72
8
 73
4
 74
0
 40
0
 40
0
 40
0
 40
0
 40
1
 40
1
 40
1
 40
1
 10
30.350796
 20
60.718443
 30
0.0
 10
30.344673
 20
60.966040
 30
0.0
 10
30.370112
 20
61.213082
 30
0.0
 10
30.408070
 20
61.457848
 30
0.0
  0
SPLINE
  5
10e
100
AcDbEntity
  8
0
 62
7
100
AcDbSpline
 70
8
 71
3
 72
8
 73
4
 74
0
 40
0
 40
0
 40
0
 40
0
 40
1
 40
1
 40
1
 40
1
 10
30.408070
 20
61.457848
 30
0.0
 10
30.455513
 20
61.763812
 30
0.0
 10
30.522513
 20
62.066231
 30
0.0
 10
30.603442
 20
62.364787
 30
0.0
  0
SPLINE
  5
10f
100
AcDbEntity
  8
0
 62
7
100
AcDbSpline
 70
8
 71
3
 72
8
 73
4
 74
0
 40
0
 40
0
 40
0
 40
0
 40
1
 40
1
 40
1
 40
1
 10
30.603442
 20
62.364787
 30
0.0
 10
30.862412
 20
63.320144
 30
0.0
 10
31.264004
 20
64.235761
 30
0.0
 10
31.728668
 20
65.106862
 30
0.0
  0
LWPOLYLINE
  5
110
100
AcDbEntity
  8
0
 62
7
100
AcDbPolyline
 90
2
 70
0
 10
34.821325
 20
59.900749
 30
0.0
 10
34.887331
 20
60.718443
 30
0.0
  0
SPLINE
  5
111
100
AcDbEntity
  8
0
 62
7
100
AcDbSpline
 70
8
 71
3
 72
8
 73
4
 74
0
 40
0
 40
0
 40
0
 40
0
 40
1
 40
1
 40
1
 40
1
 10
29.967750
 20
59.362956
 30
0.0
 10
30.239003
 20
59.389848
 30
0.0
 10
30.438735
 20
59.629050
 30
0.0
 10
30.416802
 20
59.900749
 30
0.0
  0
SPLINE
  5
112
100
AcDbEntity
  8
0
 62
7
100
AcDbSpline
 70
8
 71
3
 72
8
 73
4
 74
0
 40
0
 40
0
 40
0
 40
0
 40
1
 40
1
 40
1
 40
1
 10
29.967750
 20
59.362956
 30
0.0
 10
29.395641
 20
59.306243
 30
0.0
 10
28.825500
 20
59.231186
 30
0.0
 10
28.258205
 20
59.137902
 30
0.0
  0
SPLINE
  5
113
100
AcDbEntity
  8
0
 62
7
100
AcDbSpline
 70
8
 71
3
 72
8
 73
4
 74
0
 40
0
 40
0
 40
0
 40
0
 40
1
 40
1
 40
1
 40
1
 10
27.685263
 20
59.541127
 30
0.0
 10
27.734408
 20
59.273017
 30
0.0
 10
27.989241
 20
59.093671
 30
0.0
 10
28.258205
 20
59.137902
 30
0.0
  0
LWPOLYLINE
  5
114
100
AcDbEntity
  8
0
 62
7
100
AcDbPolyline
 90
2
 70
0
 10
30.416802
 20
59.900749
 30
0.0
 10
30.350796
 20
60.718443
 30
0.0
  0
SPLINE
  5
115
100
AcDbEntity
  8
0
 62
7
100
AcDbSpline
 70
8
 71
3
 72
8
 73
4
 74
0
 40
0
 40
0
 40
0
 40
0
 40
1
 40
1
 40
1
 40
1
 10
27.537388
 20
60.348053
 30
0.0
 10
27.479220
 20
60.588798
 30
0.0
 10
27.390710
 20
60.820837
 30
0.0
 10
27.290689
 20
61.047453
 30
0.0
  0
SPLINE
  5
116
100
AcDbEntity
  8
0
 62
7
100
AcDbSpline
 70
8
 71
3
 72
8
 73
4
 74
0
 40
0
 40
0
 40
0
 40
0
 40
1
 40
1
 40
1
 40
1
 10
27.290689
 20
61.047453
 30
0.0
 10
27.165678
 20
61.330689
 30
0.0
 10
27.022686
 20
61.605485
 30
0.0
 10
26.867245
 20
61.872900
 30
0.0
  0
SPLINE
  5
117
100
AcDbEntity
  8
0
 62
7
100
AcDbSpline
 70
8
 71
3
 72
8
 73
4
 74
0
 40
0
 40
0
 40
0
 40
0
 40
1
 40
1
 40
1
 40
1
 10
26.867245
 20
61.872900
 30
0.0
 10
26.369837
 20
62.728668
 30
0.0
 10
25.744951
 20
63.509163
 30
0.0
 10
25.070659
 20
64.230311
 30
0.0
  0
SPLINE
  5
118
100
AcDbEntity
  8
0
 62
7
100
AcDbSpline
 70
8
 71
3
 72
8
 73
4
 74
0
 40
0
 40
0
 40
0
 40
0
 40
1
 40
1
 40
1
 40
1
 10
25.070659
 20
64.230311
 30
0.0
 10
24.493185
 20
64.092416
 30
0.0
 10
23.919599
 20
63.938724
 30
0.0
 10
23.350545
 20
63.769407
 30
0.0
  0
SPLINE
  5
119
100
AcDbEntity
  8
0
 62
7
100
AcDbSpline
 70
8
 71
3
 72
8
 73
4
 74
0
 40
0
 40
0
 40
0
 40
0
 40
1
 40
1
 40
1
 40
1
 10
23.155432
 20
59.173912
 30
0.0
 10
23.085435
 20
59.411481
 30
0.0
 10
23.046068
 20
59.656697
 30
0.0
 10
23.019378
 20
59.902945
 30
0.0
  0
SPLINE
  5
11a
100
AcDbEntity
  8
0
 62
7
100
AcDbSpline
 70
8
 71
3
 72
8
 73
4
 74
0
 40
0
 40
0
 40
0
 40
0
 40
1
 40
1
 40
1
 40
1
 10
23.019378
 20
59.902945
 30
0.0
 10
22.986019
 20
60.210761
 30
0.0
 10
22.972462
 20
60.520218
 30
0.0
 10
22.973363
 20
60.829542
 30
0.0
  0
SPLINE
  5
11b
100
AcDbEntity
  8
0
 62
7
100
AcDbSpline
 70
8
 71
3
 72
8
 73
4
 74
0
 40
0
 40
0
 40
0
 40
0
 40
1
 40
1
 40
1
 40
1
 10
22.973363
 20
60.829542
 30
0.0
 10
22.976247
 20
61.819375
 30
0.0
 10
23.127176
 20
62.807726
 30
0.0
 10
23.350545
 20
63.769407
 30
0.0
  0
LWPOLYLINE
  5
11c
100
AcDbEntity
  8
0
 62
7
100
AcDbPolyline
 90
2
 70
0
 10
27.685263
 20
59.541127
 30
0.0
 10
27.537388
 20
60.348053
 30
0.0
  0
SPLINE
  5
11d
100
AcDbEntity
  8
0
 62
7
100
AcDbSpline
 70
8
 71
3
 72
8
 73
4
 74
0
 40
0
 40
0
 40
0
 40
0
 40
1
 40
1
 40
1
 40
1
 10
23.136261
 20
57.765482
 30
0.0
 10
23.391310
 20
57.861662
 30
0.0
 10
23.522326
 20
58.144406
 30
0.0
 10
23.430821
 20
58.401170
 30
0.0
  0
SPLINE
  5
11e
100
AcDbEntity
  8
0
 62
7
100
AcDbSpline
 70
8
 71
3
 72
8
 73
4
 74
0
 40
0
 40
0
 40
0
 40
0
 40
1
 40
1
 40
1
 40
1
 10
23.136261
 20
57.765482
 30
0.0
 10
22.598325
 20
57.562621
 30
0.0
 10
22.067038
 20
57.342551
 30
0.0
 10
21.543218
 20
57.105611
 30
0.0
  0
SPLINE
  5
11f
100
AcDbEntity
  8
0
 62
7
100
AcDbSpline
 70
8
 71
3
 72
8
 73
4
 74
0
 40
0
 40
0
 40
0
 40
0
 40
1
 40
1
 40
1
 40
1
 10
20.885432
 20
57.346831
 30
0.0
 10
21.002286
 20
57.100565
 30
0.0
 10
21.294860
 20
56.993274
 30
0.0
 10
21.543218
 20
57.105611
 30
0.0
  0
LWPOLYLINE
  5
120
100
AcDbEntity
  8
0
 62
7
100
AcDbPolyline
 90
2
 70
0
 10
23.430821
 20
58.401170
 30
0.0
 10
23.155432
 20
59.173912
 30
0.0
  0
SPLINE
  5
121
100
AcDbEntity
  8
0
 62
7
100
AcDbSpline
 70
8
 71
3
 72
8
 73
4
 74
0
 40
0
 40
0
 40
0
 40
0
 40
1
 40
1
 40
1
 40
1
 10
20.533752
 20
58.087982
 30
0.0
 10
20.415258
 20
58.305443
 30
0.0
 10
20.269707
 20
58.506685
 30
0.0
 10
20.114441
 20
58.699699
 30
0.0
  0
SPLINE
  5
122
100
AcDbEntity
  8
0
 62
7
100
AcDbSpline
 70
8
 71
3
 72
8
 73
4
 74
0
 40
0
 40
0
 40
0
 40
0
 40
1
 40
1
 40
1
 40
1
 10
20.114441
 20
58.699699
 30
0.0
 10
19.920381
 20
58.940920
 30
0.0
 10
19.711142
 20
59.169334
 30
0.0
 10
19.491781
 20
59.387430
 30
0.0
  0
SPLINE
  5
123
100
AcDbEntity
  8
0
 62
7
100
AcDbSpline
 70
8
 71
3
 72
8
 73
4
 74
0
 40
0
 40
0
 40
0
 40
0
 40
1
 40
1
 40
1
 40
1
 10
19.491781
 20
59.387430
 30
0.0
 10
18.789834
 20
60.085295
 30
0.0
 10
17.984237
 20
60.677433
 30
0.0
 10
17.146269
 20
61.199509
 30
0.0
  0
SPLINE
  5
124
100
AcDbEntity
  8
0
 62
7
100
AcDbSpline
 70
8
 71
3
 72
8
 73
4
 74
0
 40
0
 40
0
 40
0
 40
0
 40
1
 40
1
 40
1
 40
1
 10
17.146269
 20
61.199509
 30
0.0
 10
16.624162
 20
60.916859
 30
0.0
 10
16.109899
 20
60.619956
 30
0.0
 10
15.604058
 20
60.309133
 30
0.0
  0
SPLINE
  5
125
100
AcDbEntity
  8
0
 62
7
100
AcDbSpline
 70
8
 71
3
 72
8
 73
4
 74
0
 40
0
 40
0
 40
0
 40
0
 40
1
 40
1
 40
1
 40
1
 10
16.604998
 20
55.819709
 30
0.0
 10
16.475898
 20
56.031059
 30
0.0
 10
16.374408
 20
56.257727
 30
0.0
 10
16.284888
 20
56.488708
 30
0.0
  0
SPLINE
  5
126
100
AcDbEntity
  8
0
 62
7
100
AcDbSpline
 70
8
 71
3
 72
8
 73
4
 74
0
 40
0
 40
0
 40
0
 40
0
 40
1
 40
1
 40
1
 40
1
 10
16.284888
 20
56.488708
 30
0.0
 10
16.173000
 20
56.777369
 30
0.0
 10
16.079811
 20
57.072776
 30
0.0
 10
16.000622
 20
57.371808
 30
0.0
  0
SPLINE
  5
127
100
AcDbEntity
  8
0
 62
7
100
AcDbSpline
 70
8
 71
3
 72
8
 73
4
 74
0
 40
0
 40
0
 40
0
 40
0
 40
1
 40
1
 40
1
 40
1
 10
16.000622
 20
57.371808
 30
0.0
 10
15.747223
 20
58.328647
 30
0.0
 10
15.637204
 20
59.322396
 30
0.0
 10
15.604058
 20
60.309133
 30
0.0
  0
LWPOLYLINE
  5
128
100
AcDbEntity
  8
0
 62
7
100
AcDbPolyline
 90
2
 70
0
 10
20.885432
 20
57.346831
 30
0.0
 10
20.533752
 20
58.087982
 30
0.0
  0
SPLINE
  5
129
100
AcDbEntity
  8
0
 62
7
100
AcDbSpline
 70
8
 71
3
 72
8
 73
4
 74
0
 40
0
 40
0
 40
0
 40
0
 40
1
 40
1
 40
1
 40
1
 10
16.951009
 20
54.454301
 30
0.0
 10
17.172478
 20
54.613216
 30
0.0
 10
17.225850
 20
54.920239
 30
0.0
 10
17.071004
 20
55.144572
 30
0.0
  0
SPLINE
  5
12a
100
AcDbEntity
  8
0
 62
7
100
AcDbSpline
 70
8
 71
3
 72
8
 73
4
 74
0
 40
0
 40
0
 40
0
 40
0
 40
1
 40
1
 40
1
 40
1
 10
16.951009
 20
54.454301
 30
0.0
 10
16.483907
 20
54.119129
 30
0.0
 10
16.027680
 20
53.769055
 30
0.0
 10
15.583033
 20
53.404619
 30
0.0
  0
SPLINE
  5
12b
100
AcDbEntity
  8
0
 62
7
100
AcDbSpline
 70
8
 71
3
 72
8
 73
4
 74
0
 40
0
 40
0
 40
0
 40
0
 40
1
 40
1
 40
1
 40
1
 10
14.885229
 20
53.467352
 30
0.0
 10
15.061845
 20
53.259728
 30
0.0
 10
15.372217
 20
53.231826
 30
0.0
 10
15.583033
 20
53.404619
 30
0.0
  0
LWPOLYLINE
  5
12c
100
AcDbEntity
  8
0
 62
7
100
AcDbPolyline
 90
2
 70
0
 10
17.071004
 20
55.144572
 30
0.0
 10
16.604998
 20
55.819709
 30
0.0
  0
SPLINE
  5
12d
100
AcDbEntity
  8
0
 62
7
100
AcDbSpline
 70
8
 71
3
 72
8
 73
4
 74
0
 40
0
 40
0
 40
0
 40
0
 40
1
 40
1
 40
1
 40
1
 10
14.353711
 20
54.092218
 30
0.0
 10
14.182965
 20
54.271632
 30
0.0
 10
13.990294
 20
54.428319
 30
0.0
 10
13.790362
 20
54.574580
 30
0.0
  0
SPLINE
  5
12e
100
AcDbEntity
  8
0
 62
7
100
AcDbSpline
 70
8
 71
3
 72
8
 73
4
 74
0
 40
0
 40
0
 40
0
 40
0
 40
1
 40
1
 40
1
 40
1
 10
13.790362
 20
54.574580
 30
0.0
 10
13.540478
 20
54.757381
 30
0.0
 10
13.279252
 20
54.923857
 30
0.0
 10
13.010920
 20
55.077712
 30
0.0
  0
SPLINE
  5
12f
100
AcDbEntity
  8
0
 62
7
100
AcDbSpline
 70
8
 71
3
 72
8
 73
4
 74
0
 40
0
 40
0
 40
0
 40
0
 40
1
 40
1
 40
1
 40
1
 10
13.010920
 20
55.077712
 30
0.0
 10
12.152269
 20
55.570128
 30
0.0
 10
11.220863
 20
55.933613
 30
0.0
 10
10.276325
 20
56.221003
 30
0.0
  0
SPLINE
  5
130
100
AcDbEntity
  8
0
 62
7
100
AcDbSpline
 70
8
 71
3
 72
8
 73
4
 74
0
 40
0
 40
0
 40
0
 40
0
 40
1
 40
1
 40
1
 40
1
 10
10.276325
 20
56.221003
 30
0.0
 10
9.845165
 20
55.812848
 30
0.0
 10
9.425271
 20
55.392956
 30
0.0
 10
9.017114
 20
54.961798
 30
0.0
  0
SPLINE
  5
131
100
AcDbEntity
  8
0
 62
7
100
AcDbSpline
 70
8
 71
3
 72
8
 73
4
 74
0
 40
0
 40
0
 40
0
 40
0
 40
1
 40
1
 40
1
 40
1
 10
11.145897
 20
50.884410
 30
0.0
 10
10.966491
 20
51.055172
 30
0.0
 10
10.809795
 20
51.247842
 30
0.0
 10
10.663545
 20
51.447761
 30
0.0
  0
SPLINE
  5
132
100
AcDbEntity
  8
0
 62
7
100
AcDbSpline
 70
8
 71
3
 72
8
 73
4
 74
0
 40
0
 40
0
 40
0
 40
0
 40
1
 40
1
 40
1
 40
1
 10
10.663545
 20
51.447761
 30
0.0
 10
10.480755
 20
51.697660
 30
0.0
 10
10.314282
 20
51.958883
 30
0.0
 10
10.160401
 20
52.227197
 30
0.0
  0
SPLINE
  5
133
100
AcDbEntity
  8
0
 62
7
100
AcDbSpline
 70
8
 71
3
 72
8
 73
4
 74
0
 40
0
 40
0
 40
0
 40
0
 40
1
 40
1
 40
1
 40
1
 10
10.160401
 20
52.227197
 30
0.0
 10
9.667988
 20
53.085849
 30
0.0
 10
9.304518
 20
54.017262
 30
0.0
 10
9.017114
 20
54.961798
 30
0.0
  0
LWPOLYLINE
  5
134
100
AcDbEntity
  8
0
 62
7
100
AcDbPolyline
 90
2
 70
0
 10
14.885229
 20
53.467352
 30
0.0
 10
14.353711
 20
54.092218
 30
0.0
  0
SPLINE
  5
135
100
AcDbEntity
  8
0
 62
7
100
AcDbSpline
 70
8
 71
3
 72
8
 73
4
 74
0
 40
0
 40
0
 40
0
 40
0
 40
1
 40
1
 40
1
 40
1
 10
11.833509
 20
49.655103
 30
0.0
 10
12.006287
 20
49.865920
 30
0.0
 10
11.978378
 20
50.176279
 30
0.0
 10
11.770761
 20
50.352889
 30
0.0
  0
SPLINE
  5
136
100
AcDbEntity
  8
0
 62
7
100
AcDbSpline
 70
8
 71
3
 72
8
 73
4
 74
0
 40
0
 40
0
 40
0
 40
0
 40
1
 40
1
 40
1
 40
1
 10
11.833509
 20
49.655103
 30
0.0
 10
11.469072
 20
49.210456
 30
0.0
 10
11.118997
 20
48.754230
 30
0.0
 10
10.783824
 20
48.287128
 30
0.0
  0
SPLINE
  5
137
100
AcDbEntity
  8
0
 62
7
100
AcDbSpline
 70
8
 71
3
 72
8
 73
4
 74
0
 40
0
 40
0
 40
0
 40
0
 40
1
 40
1
 40
1
 40
1
 10
10.093557
 20
48.167113
 30
0.0
 10
10.317894
 20
48.012274
 30
0.0
 10
10.624915
 20
48.065655
 30
0.0
 10
10.783824
 20
48.287128
 30
0.0
  0
LWPOLYLINE
  5
138
100
AcDbEntity
  8
0
 62
7
100
AcDbPolyline
 90
2
 70
0
 10
11.770761
 20
50.352889
 30
0.0
 10
11.145897
 20
50.884410
 30
0.0
  0
SPLINE
  5
139
100
AcDbEntity
  8
0
 62
7
100
AcDbSpline
 70
8
 71
3
 72
8
 73
4
 74
0
 40
0
 40
0
 40
0
 40
0
 40
1
 40
1
 40
1
 40
1
 10
9.418423
 20
48.633123
 30
0.0
 10
9.207061
 20
48.762240
 30
0.0
 10
8.980399
 20
48.863708
 30
0.0
 10
8.749428
 20
48.953243
 30
0.0
  0
SPLINE
  5
13a
100
AcDbEntity
  8
0
 62
7
100
AcDbSpline
 70
8
 71
3
 72
8
 73
4
 74
0
 40
0
 40
0
 40
0
 40
0
 40
1
 40
1
 40
1
 40
1
 10
8.749428
 20
48.953243
 30
0.0
 10
8.460749
 20
49.065135
 30
0.0
 10
8.165337
 20
49.158321
 30
0.0
 10
7.866322
 20
49.237511
 30
0.0
  0
SPLINE
  5
13b
100
AcDbEntity
  8
0
 62
7
100
AcDbSpline
 70
8
 71
3
 72
8
 73
4
 74
0
 40
0
 40
0
 40
0
 40
0
 40
1
 40
1
 40
1
 40
1
 10
7.866322
 20
49.237511
 30
0.0
 10
6.909483
 20
49.490903
 30
0.0
 10
5.915739
 20
49.600916
 30
0.0
 10
4.929000
 20
49.634069
 30
0.0
  0
SPLINE
  5
13c
100
AcDbEntity
  8
0
 62
7
100
AcDbSpline
 70
8
 71
3
 72
8
 73
4
 74
0
 40
0
 40
0
 40
0
 40
0
 40
1
 40
1
 40
1
 40
1
 10
4.929000
 20
49.634069
 30
0.0
 10
4.618171
 20
49.128230
 30
0.0
 10
4.321261
 20
48.613969
 30
0.0
 10
4.038605
 20
48.091865
 30
0.0
  0
SPLINE
  5
13d
100
AcDbEntity
  8
0
 62
7
100
AcDbSpline
 70
8
 71
3
 72
8
 73
4
 74
0
 40
0
 40
0
 40
0
 40
0
 40
1
 40
1
 40
1
 40
1
 10
7.150156
 20
44.704378
 30
0.0
 10
6.932671
 20
44.822859
 30
0.0
 10
6.731447
 20
44.968406
 30
0.0
 10
6.538435
 20
45.123690
 30
0.0
  0
SPLINE
  5
13e
100
AcDbEntity
  8
0
 62
7
100
AcDbSpline
 70
8
 71
3
 72
8
 73
4
 74
0
 40
0
 40
0
 40
0
 40
0
 40
1
 40
1
 40
1
 40
1
 10
6.538435
 20
45.123690
 30
0.0
 10
6.297198
 20
45.317735
 30
0.0
 10
6.068788
 20
45.526994
 30
0.0
 10
5.850700
 20
45.746334
 30
0.0
  0
SPLINE
  5
13f
100
AcDbEntity
  8
0
 62
7
100
AcDbSpline
 70
8
 71
3
 72
8
 73
4
 74
0
 40
0
 40
0
 40
0
 40
0
 40
1
 40
1
 40
1
 40
1
 10
5.850700
 20
45.746334
 30
0.0
 10
5.152832
 20
46.448300
 30
0.0
 10
4.560681
 20
47.253877
 30
0.0
 10
4.038605
 20
48.091865
 30
0.0
  0
LWPOLYLINE
  5
140
100
AcDbEntity
  8
0
 62
7
100
AcDbPolyline
 90
2
 70
0
 10
10.093557
 20
48.167113
 30
0.0
 10
9.418423
 20
48.633123
 30
0.0
  0
SPLINE
  5
141
100
AcDbEntity
  8
0
 62
7
100
AcDbSpline
 70
8
 71
3
 72
8
 73
4
 74
0
 40
0
 40
0
 40
0
 40
0
 40
1
 40
1
 40
1
 40
1
 10
8.132511
 20
43.694914
 30
0.0
 10
8.244845
 20
43.943269
 30
0.0
 10
8.137556
 20
44.235839
 30
0.0
 10
7.891296
 20
44.352694
 30
0.0
  0
SPLINE
  5
142
100
AcDbEntity
  8
0
 62
7
100
AcDbSpline
 70
8
 71
3
 72
8
 73
4
 74
0
 40
0
 40
0
 40
0
 40
0
 40
1
 40
1
 40
1
 40
1
 10
8.132511
 20
43.694914
 30
0.0
 10
7.895574
 20
43.171089
 30
0.0
 10
7.675508
 20
42.639797
 30
0.0
 10
7.472651
 20
42.101857
 30
0.0
  0
SPLINE
  5
143
100
AcDbEntity
  8
0
 62
7
100
AcDbSpline
 70
8
 71
3
 72
8
 73
4
 74
0
 40
0
 40
0
 40
0
 40
0
 40
1
 40
1
 40
1
 40
1
 10
6.836961
 20
41.807297
 30
0.0
 10
7.093725
 20
41.715791
 30
0.0
 10
7.376471
 20
41.846807
 30
0.0
 10
7.472651
 20
42.101857
 30
0.0
  0
LWPOLYLINE
  5
144
100
AcDbEntity
  8
0
 62
7
100
AcDbPolyline
 90
2
 70
0
 10
7.891296
 20
44.352694
 30
0.0
 10
7.150156
 20
44.704378
 30
0.0
  0
SPLINE
  5
145
100
AcDbEntity
  8
0
 62
7
100
AcDbSpline
 70
8
 71
3
 72
8
 73
4
 74
0
 40
0
 40
0
 40
0
 40
0
 40
1
 40
1
 40
1
 40
1
 10
6.064221
 20
42.082701
 30
0.0
 10
5.826646
 20
42.152684
 30
0.0
 10
5.581441
 20
42.192054
 30
0.0
 10
5.335169
 20
42.218750
 30
0.0
  0
SPLINE
  5
146
100
AcDbEntity
  8
0
 62
7
100
AcDbSpline
 70
8
 71
3
 72
8
 73
4
 74
0
 40
0
 40
0
 40
0
 40
0
 40
1
 40
1
 40
1
 40
1
 10
5.335169
 20
42.218750
 30
0.0
 10
5.027369
 20
42.252114
 30
0.0
 10
4.717904
 20
42.265661
 30
0.0
 10
4.408583
 20
42.264761
 30
0.0
  0
SPLINE
  5
147
100
AcDbEntity
  8
0
 62
7
100
AcDbSpline
 70
8
 71
3
 72
8
 73
4
 74
0
 40
0
 40
0
 40
0
 40
0
 40
1
 40
1
 40
1
 40
1
 10
4.408583
 20
42.264761
 30
0.0
 10
3.418763
 20
42.261851
 30
0.0
 10
2.430404
 20
42.110959
 30
0.0
 10
1.468710
 20
41.887571
 30
0.0
  0
SPLINE
  5
148
100
AcDbEntity
  8
0
 62
7
100
AcDbSpline
 70
8
 71
3
 72
8
 73
4
 74
0
 40
0
 40
0
 40
0
 40
0
 40
1
 40
1
 40
1
 40
1
 10
1.468710
 20
41.887571
 30
0.0
 10
1.299393
 20
41.318519
 30
0.0
 10
1.145700
 20
40.744934
 30
0.0
 10
1.007806
 20
40.167462
 30
0.0
  0
SPLINE
  5
149
100
AcDbEntity
  8
0
 62
7
100
AcDbSpline
 70
8
 71
3
 72
8
 73
4
 74
0
 40
0
 40
0
 40
0
 40
0
 40
1
 40
1
 40
1
 40
1
 10
4.890079
 20
37.700725
 30
0.0
 10
4.649335
 20
37.758907
 30
0.0
 10
4.417298
 20
37.847410
 30
0.0
 10
4.190677
 20
37.947449
 30
0.0
  0
SPLINE
  5
14a
100
AcDbEntity
  8
0
 62
7
100
AcDbSpline
 70
8
 71
3
 72
8
 73
4
 74
0
 40
0
 40
0
 40
0
 40
0
 40
1
 40
1
 40
1
 40
1
 10
4.190677
 20
37.947449
 30
0.0
 10
3.907433
 20
38.072438
 30
0.0
 10
3.632650
 20
38.215446
 30
0.0
 10
3.365220
 20
38.370888
 30
0.0
  0
SPLINE
  5
14b
100
AcDbEntity
  8
0
 62
7
100
AcDbSpline
 70
8
 71
3
 72
8
 73
4
 74
0
 40
0
 40
0
 40
0
 40
0
 40
1
 40
1
 40
1
 40
1
 10
3.365220
 20
38.370888
 30
0.0
 10
2.509451
 20
38.868279
 30
0.0
 10
1.728975
 20
39.493171
 30
0.0
 10
1.007806
 20
40.167462
 30
0.0
  0
LWPOLYLINE
  5
14c
100
AcDbEntity
  8
0
 62
7
100
AcDbPolyline
 90
2
 70
0
 10
6.836961
 20
41.807297
 30
0.0
 10
6.064221
 20
42.082701
 30
0.0
  0
SPLINE
  5
14d
100
AcDbEntity
  8
0
 62
7
100
AcDbSpline
 70
8
 71
3
 72
8
 73
4
 74
0
 40
0
 40
0
 40
0
 40
0
 40
1
 40
1
 40
1
 40
1
 10
6.100231
 20
36.979921
 30
0.0
 10
6.144453
 20
37.248886
 30
0.0
 10
5.965099
 20
37.503714
 30
0.0
 10
5.696987
 20
37.552850
 30
0.0
  0
SPLINE
  5
14e
100
AcDbEntity
  8
0
 62
7
100
AcDbSpline
 70
8
 71
3
 72
8
 73
4
 74
0
 40
0
 40
0
 40
0
 40
0
 40
1
 40
1
 40
1
 40
1
 10
6.100231
 20
36.979921
 30
0.0
 10
6.006942
 20
36.412624
 30
0.0
 10
5.931881
 20
35.842480
 30
0.0
 10
5.875163
 20
35.270369
 30
0.0
  0
SPLINE
  5
14f
100
AcDbEntity
  8
0
 62
7
100
AcDbSpline
 70
8
 71
3
 72
8
 73
4
 74
0
 40
0
 40
0
 40
0
 40
0
 40
1
 40
1
 40
1
 40
1
 10
5.337373
 20
34.821318
 30
0.0
 10
5.609071
 20
34.799387
 30
0.0
 10
5.848271
 20
34.999117
 30
0.0
 10
5.875163
 20
35.270369
 30
0.0
  0
LWPOLYLINE
  5
150
100
AcDbEntity
  8
0
 62
7
100
AcDbPolyline
 90
2
 70
0
 10
5.696987
 20
37.552850
 30
0.0
 10
4.890079
 20
37.700725
 30
0.0
  0
SPLINE
  5
151
100
AcDbEntity
  8
0
 62
7
100
AcDbSpline
 70
8
 71
3
 72
8
 73
4
 74
0
 40
0
 40
0
 40
0
 40
0
 40
1
 40
1
 40
1
 40
1
 10
4.519687
 20
34.887331
 30
0.0
 10
4.272092
 20
34.893417
 30
0.0
 10
4.025053
 20
34.868017
 30
0.0
 10
3.780266
 20
34.830049
 30
0.0
  0
SPLINE
  5
152
100
AcDbEntity
  8
0
 62
7
100
AcDbSpline
 70
8
 71
3
 72
8
 73
4
 74
0
 40
0
 40
0
 40
0
 40
0
 40
1
 40
1
 40
1
 40
1
 10
3.780266
 20
34.830049
 30
0.0
 10
3.474318
 20
34.782609
 30
0.0
 10
3.171889
 20
34.715617
 30
0.0
 10
2.873341
 20
34.634681
 30
0.0
  0
SPLINE
  5
153
100
AcDbEntity
  8
0
 62
7
100
AcDbSpline
 70
8
 71
3
 72
8
 73
4
 74
0
 40
0
 40
0
 40
0
 40
0
 40
1
 40
1
 40
1
 40
1
 10
2.873341
 20
34.634681
 30
0.0
 10
1.917994
 20
34.375706
 30
0.0
 10
1.002379
 20
33.974122
 30
0.0
 10
0.131262
 20
33.509461
 30
0.0
  0
SPLINE
  5
154
100
AcDbEntity
  8
0
 62
7
100
AcDbSpline
 70
8
 71
3
 72
8
 73
4
 74
0
 40
0
 40
0
 40
0
 40
0
 40
1
 40
1
 40
1
 40
1
 10
0.131262
 20
33.509461
 30
0.0
 10
0.114996
 20
32.915971
 30
0.0
 10
0.114996
 20
32.322146
 30
0.0
 10
0.131262
 20
31.728656
 30
0.0
  0
SPLINE
  5
155
100
AcDbEntity
  8
0
 62
7
100
AcDbSpline
 70
8
 71
3
 72
8
 73
4
 74
0
 40
0
 40
0
 40
0
 40
0
 40
1
 40
1
 40
1
 40
1
 10
4.519687
 20
30.350785
 30
0.0
 10
4.272092
 20
30.344700
 30
0.0
 10
4.025053
 20
30.370100
 30
0.0
 10
3.780266
 20
30.408068
 30
0.0
  0
SPLINE
  5
156
100
AcDbEntity
  8
0
 62
7
100
AcDbSpline
 70
8
 71
3
 72
8
 73
4
 74
0
 40
0
 40
0
 40
0
 40
0
 40
1
 40
1
 40
1
 40
1
 10
3.780266
 20
30.408068
 30
0.0
 10
3.474318
 20
30.455508
 30
0.0
 10
3.171889
 20
30.522500
 30
0.0
 10
2.873341
 20
30.603436
 30
0.0
  0
SPLINE
  5
157
100
AcDbEntity
  8
0
 62
7
100
AcDbSpline
 70
8
 71
3
 72
8
 73
4
 74
0
 40
0
 40
0
 40
0
 40
0
 40
1
 40
1
 40
1
 40
1
 10
2.873341
 20
30.603436
 30
0.0
 10
1.917994
 20
30.862410
 30
0.0
 10
1.002379
 20
31.263995
 30
0.0
 10
0.131262
 20
31.728656
 30
0.0
  0
LWPOLYLINE
  5
158
100
AcDbEntity
  8
0
 62
7
100
AcDbPolyline
 90
2
 70
0
 10
5.337373
 20
34.821318
 30
0.0
 10
4.519687
 20
34.887331
 30
0.0
  0
SPLINE
  5
159
100
AcDbEntity
  8
0
 62
7
100
AcDbSpline
 70
8
 71
3
 72
8
 73
4
 74
0
 40
0
 40
0
 40
0
 40
0
 40
1
 40
1
 40
1
 40
1
 10
5.875163
 20
29.967748
 30
0.0
 10
5.848271
 20
30.238999
 30
0.0
 10
5.609071
 20
30.438730
 30
0.0
 10
5.337373
 20
30.416799
 30
0.0
  0
SPLINE
  5
15a
100
AcDbEntity
  8
0
 62
7
100
AcDbSpline
 70
8
 71
3
 72
8
 73
4
 74
0
 40
0
 40
0
 40
0
 40
0
 40
1
 40
1
 40
1
 40
1
 10
5.875163
 20
29.967748
 30
0.0
 10
5.931881
 20
29.395637
 30
0.0
 10
6.006942
 20
28.825493
 30
0.0
 10
6.100231
 20
28.258196
 30
0.0
  0
SPLINE
  5
15b
100
AcDbEntity
  8
0
 62
7
100
AcDbSpline
 70
8
 71
3
 72
8
 73
4
 74
0
 40
0
 40
0
 40
0
 40
0
 40
1
 40
1
 40
1
 40
1
 10
5.696987
 20
27.685267
 30
0.0
 10
5.965099
 20
27.734403
 30
0.0
 10
6.144453
 20
27.989230
 30
0.0
 10
6.100231
 20
28.258196
 30
0.0
  0
LWPOLYLINE
  5
15c
100
AcDbEntity
  8
0
 62
7
100
AcDbPolyline
 90
2
 70
0
 10
5.337373
 20
30.416799
 30
0.0
 10
4.519687
 20
30.350785
 30
0.0
  0
SPLINE
  5
15d
100
AcDbEntity
  8
0
 62
7
100
AcDbSpline
 70
8
 71
3
 72
8
 73
4
 74
0
 40
0
 40
0
 40
0
 40
0
 40
1
 40
1
 40
1
 40
1
 10
4.890079
 20
27.537391
 30
0.0
 10
4.649335
 20
27.479210
 30
0.0
 10
4.417298
 20
27.390706
 30
0.0
 10
4.190677
 20
27.290694
 30
0.0
  0
SPLINE
  5
15e
100
AcDbEntity
  8
0
 62
7
100
AcDbSpline
 70
8
 71
3
 72
8
 73
4
 74
0
 40
0
 40
0
 40
0
 40
0
 40
1
 40
1
 40
1
 40
1
 10
4.190677
 20
27.290694
 30
0.0
 10
3.907433
 20
27.165678
 30
0.0
 10
3.632650
 20
27.022698
 30
0.0
 10
3.365220
 20
26.867255
 30
0.0
  0
SPLINE
  5
15f
100
AcDbEntity
  8
0
 62
7
100
AcDbSpline
 70
8
 71
3
 72
8
 73
4
 74
0
 40
0
 40
0
 40
0
 40
0
 40
1
 40
1
 40
1
 40
1
 10
3.365220
 20
26.867255
 30
0.0
 10
2.509451
 20
26.369838
 30
0.0
 10
1.728975
 20
25.744945
 30
0.0
 10
1.007806
 20
25.070655
 30
0.0
  0
SPLINE
  5
160
100
AcDbEntity
  8
0
 62
7
100
AcDbSpline
 70
8
 71
3
 72
8
 73
4
 74
0
 40
0
 40
0
 40
0
 40
0
 40
1
 40
1
 40
1
 40
1
 10
1.007806
 20
25.070655
 30
0.0
 10
1.145700
 20
24.493183
 30
0.0
 10
1.299393
 20
23.919598
 30
0.0
 10
1.468710
 20
23.350545
 30
0.0
  0
SPLINE
  5
161
100
AcDbEntity
  8
0
 62
7
100
AcDbSpline
 70
8
 71
3
 72
8
 73
4
 74
0
 40
0
 40
0
 40
0
 40
0
 40
1
 40
1
 40
1
 40
1
 10
6.064221
 20
23.155442
 30
0.0
 10
5.826646
 20
23.085433
 30
0.0
 10
5.581441
 20
23.046063
 30
0.0
 10
5.335169
 20
23.019366
 30
0.0
  0
SPLINE
  5
162
100
AcDbEntity
  8
0
 62
7
100
AcDbSpline
 70
8
 71
3
 72
8
 73
4
 74
0
 40
0
 40
0
 40
0
 40
0
 40
1
 40
1
 40
1
 40
1
 10
5.335169
 20
23.019366
 30
0.0
 10
5.027369
 20
22.986029
 30
0.0
 10
4.717904
 20
22.972456
 30
0.0
 10
4.408583
 20
22.973355
 30
0.0
  0
SPLINE
  5
163
100
AcDbEntity
  8
0
 62
7
100
AcDbSpline
 70
8
 71
3
 72
8
 73
4
 74
0
 40
0
 40
0
 40
0
 40
0
 40
1
 40
1
 40
1
 40
1
 10
4.408583
 20
22.973355
 30
0.0
 10
3.418763
 20
22.976266
 30
0.0
 10
2.430404
 20
23.127184
 30
0.0
 10
1.468710
 20
23.350545
 30
0.0
  0
LWPOLYLINE
  5
164
100
AcDbEntity
  8
0
 62
7
100
AcDbPolyline
 90
2
 70
0
 10
5.696987
 20
27.685267
 30
0.0
 10
4.890079
 20
27.537391
 30
0.0
  0
SPLINE
  5
165
100
AcDbEntity
  8
0
 62
7
100
AcDbSpline
 70
8
 71
3
 72
8
 73
4
 74
0
 40
0
 40
0
 40
0
 40
0
 40
1
 40
1
 40
1
 40
1
 10
7.472651
 20
23.136259
 30
0.0
 10
7.376471
 20
23.391310
 30
0.0
 10
7.093725
 20
23.522326
 30
0.0
 10
6.836961
 20
23.430820
 30
0.0
  0
SPLINE
  5
166
100
AcDbEntity
  8
0
 62
7
100
AcDbSpline
 70
8
 71
3
 72
8
 73
4
 74
0
 40
0
 40
0
 40
0
 40
0
 40
1
 40
1
 40
1
 40
1
 10
7.472651
 20
23.136259
 30
0.0
 10
7.675508
 20
22.598328
 30
0.0
 10
7.895575
 20
22.067045
 30
0.0
 10
8.132511
 20
21.543230
 30
0.0
  0
SPLINE
  5
167
100
AcDbEntity
  8
0
 62
7
100
AcDbSpline
 70
8
 71
3
 72
8
 73
4
 74
0
 40
0
 40
0
 40
0
 40
0
 40
1
 40
1
 40
1
 40
1
 10
7.891296
 20
20.885423
 30
0.0
 10
8.137571
 20
21.002278
 30
0.0
 10
8.244862
 20
21.294867
 30
0.0
 10
8.132511
 20
21.543230
 30
0.0
  0
LWPOLYLINE
  5
168
100
AcDbEntity
  8
0
 62
7
100
AcDbPolyline
 90
2
 70
0
 10
6.836961
 20
23.430820
 30
0.0
 10
6.064221
 20
23.155442
 30
0.0
  0
SPLINE
  5
169
100
AcDbEntity
  8
0
 62
7
100
AcDbSpline
 70
8
 71
3
 72
8
 73
4
 74
0
 40
0
 40
0
 40
0
 40
0
 40
1
 40
1
 40
1
 40
1
 10
7.150156
 20
20.533738
 30
0.0
 10
6.932671
 20
20.415258
 30
0.0
 10
6.731447
 20
20.269711
 30
0.0
 10
6.538435
 20
20.114427
 30
0.0
  0
SPLINE
  5
16a
100
AcDbEntity
  8
0
 62
7
100
AcDbSpline
 70
8
 71
3
 72
8
 73
4
 74
0
 40
0
 40
0
 40
0
 40
0
 40
1
 40
1
 40
1
 40
1
 10
6.538435
 20
20.114427
 30
0.0
 10
6.297198
 20
19.920381
 30
0.0
 10
6.068788
 20
19.711149
 30
0.0
 10
5.850700
 20
19.491783
 30
0.0
  0
SPLINE
  5
16b
100
AcDbEntity
  8
0
 62
7
100
AcDbSpline
 70
8
 71
3
 72
8
 73
4
 74
0
 40
0
 40
0
 40
0
 40
0
 40
1
 40
1
 40
1
 40
1
 10
5.850700
 20
19.491783
 30
0.0
 10
5.152832
 20
18.789843
 30
0.0
 10
4.560681
 20
17.984240
 30
0.0
 10
4.038605
 20
17.146278
 30
0.0
  0
SPLINE
  5
16c
100
AcDbEntity
  8
0
 62
7
100
AcDbSpline
 70
8
 71
3
 72
8
 73
4
 74
0
 40
0
 40
0
 40
0
 40
0
 40
1
 40
1
 40
1
 40
1
 10
4.038605
 20
17.146278
 30
0.0
 10
4.321261
 20
16.624165
 30
0.0
 10
4.618170
 20
16.109895
 30
0.0
 10
4.929000
 20
15.604048
 30
0.0
  0
SPLINE
  5
16d
100
AcDbEntity
  8
0
 62
7
100
AcDbSpline
 70
8
 71
3
 72
8
 73
4
 74
0
 40
0
 40
0
 40
0
 40
0
 40
1
 40
1
 40
1
 40
1
 10
9.418423
 20
16.604993
 30
0.0
 10
9.207061
 20
16.475903
 30
0.0
 10
8.980399
 20
16.374409
 30
0.0
 10
8.749428
 20
16.284874
 30
0.0
  0
SPLINE
  5
16e
100
AcDbEntity
  8
0
 62
7
100
AcDbSpline
 70
8
 71
3
 72
8
 73
4
 74
0
 40
0
 40
0
 40
0
 40
0
 40
1
 40
1
 40
1
 40
1
 10
8.749428
 20
16.284874
 30
0.0
 10
8.460749
 20
16.173008
 30
0.0
 10
8.165337
 20
16.079822
 30
0.0
 10
7.866322
 20
16.000632
 30
0.0
  0
SPLINE
  5
16f
100
AcDbEntity
  8
0
 62
7
100
AcDbSpline
 70
8
 71
3
 72
8
 73
4
 74
0
 40
0
 40
0
 40
0
 40
0
 40
1
 40
1
 40
1
 40
1
 10
7.866322
 20
16.000632
 30
0.0
 10
6.909483
 20
15.747214
 30
0.0
 10
5.915739
 20
15.637200
 30
0.0
 10
4.929000
 20
15.604048
 30
0.0
  0
LWPOLYLINE
  5
170
100
AcDbEntity
  8
0
 62
7
100
AcDbPolyline
 90
2
 70
0
 10
7.891296
 20
20.885423
 30
0.0
 10
7.150156
 20
20.533738
 30
0.0
  0
SPLINE
  5
171
100
AcDbEntity
  8
0
 62
7
100
AcDbSpline
 70
8
 71
3
 72
8
 73
4
 74
0
 40
0
 40
0
 40
0
 40
0
 40
1
 40
1
 40
1
 40
1
 10
10.783824
 20
16.951015
 30
0.0
 10
10.624907
 20
17.172479
 30
0.0
 10
10.317887
 20
17.225849
 30
0.0
 10
10.093557
 20
17.071004
 30
0.0
  0
SPLINE
  5
172
100
AcDbEntity
  8
0
 62
7
100
AcDbSpline
 70
8
 71
3
 72
8
 73
4
 74
0
 40
0
 40
0
 40
0
 40
0
 40
1
 40
1
 40
1
 40
1
 10
10.783824
 20
16.951015
 30
0.0
 10
11.118997
 20
16.483914
 30
0.0
 10
11.469072
 20
16.027687
 30
0.0
 10
11.833509
 20
15.583040
 30
0.0
  0
SPLINE
  5
173
100
AcDbEntity
  8
0
 62
7
100
AcDbSpline
 70
8
 71
3
 72
8
 73
4
 74
0
 40
0
 40
0
 40
0
 40
0
 40
1
 40
1
 40
1
 40
1
 10
11.770761
 20
14.885228
 30
0.0
 10
11.978395
 20
15.061840
 30
0.0
 10
12.006304
 20
15.372219
 30
0.0
 10
11.833509
 20
15.583040
 30
0.0
  0
LWPOLYLINE
  5
174
100
AcDbEntity
  8
0
 62
7
100
AcDbPolyline
 90
2
 70
0
 10
10.093557
 20
17.071004
 30
0.0
 10
9.418423
 20
16.604993
 30
0.0
  0
SPLINE
  5
175
100
AcDbEntity
  8
0
 62
7
100
AcDbSpline
 70
8
 71
3
 72
8
 73
4
 74
0
 40
0
 40
0
 40
0
 40
0
 40
1
 40
1
 40
1
 40
1
 10
11.145897
 20
14.353707
 30
0.0
 10
10.966491
 20
14.182971
 30
0.0
 10
10.809795
 20
13.990301
 30
0.0
 10
10.663545
 20
13.790356
 30
0.0
  0
SPLINE
  5
176
100
AcDbEntity
  8
0
 62
7
100
AcDbSpline
 70
8
 71
3
 72
8
 73
4
 74
0
 40
0
 40
0
 40
0
 40
0
 40
1
 40
1
 40
1
 40
1
 10
10.663545
 20
13.790356
 30
0.0
 10
10.480755
 20
13.540483
 30
0.0
 10
10.314282
 20
13.279260
 30
0.0
 10
10.160401
 20
13.010920
 30
0.0
  0
SPLINE
  5
177
100
AcDbEntity
  8
0
 62
7
100
AcDbSpline
 70
8
 71
3
 72
8
 73
4
 74
0
 40
0
 40
0
 40
0
 40
0
 40
1
 40
1
 40
1
 40
1
 10
10.160401
 20
13.010920
 30
0.0
 10
9.667988
 20
12.152268
 30
0.0
 10
9.304518
 20
11.220855
 30
0.0
 10
9.017114
 20
10.276319
 30
0.0
  0
SPLINE
  5
178
100
AcDbEntity
  8
0
 62
7
100
AcDbSpline
 70
8
 71
3
 72
8
 73
4
 74
0
 40
0
 40
0
 40
0
 40
0
 40
1
 40
1
 40
1
 40
1
 10
9.017114
 20
10.276319
 30
0.0
 10
9.425271
 20
9.845161
 30
0.0
 10
9.845165
 20
9.425268
 30
0.0
 10
10.276325
 20
9.017114
 30
0.0
  0
SPLINE
  5
179
100
AcDbEntity
  8
0
 62
7
100
AcDbSpline
 70
8
 71
3
 72
8
 73
4
 74
0
 40
0
 40
0
 40
0
 40
0
 40
1
 40
1
 40
1
 40
1
 10
14.353711
 20
11.145898
 30
0.0
 10
14.182965
 20
10.966484
 30
0.0
 10
13.990294
 20
10.809798
 30
0.0
 10
13.790362
 20
10.663536
 30
0.0
  0
SPLINE
  5
17a
100
AcDbEntity
  8
0
 62
7
100
AcDbSpline
 70
8
 71
3
 72
8
 73
4
 74
0
 40
0
 40
0
 40
0
 40
0
 40
1
 40
1
 40
1
 40
1
 10
13.790362
 20
10.663536
 30
0.0
 10
13.540478
 20
10.480762
 30
0.0
 10
13.279252
 20
10.314286
 30
0.0
 10
13.010920
 20
10.160405
 30
0.0
  0
SPLINE
  5
17b
100
AcDbEntity
  8
0
 62
7
100
AcDbSpline
 70
8
 71
3
 72
8
 73
4
 74
0
 40
0
 40
0
 40
0
 40
0
 40
1
 40
1
 40
1
 40
1
 10
13.010920
 20
10.160405
 30
0.0
 10
12.152269
 20
9.667989
 30
0.0
 10
11.220863
 20
9.304504
 30
0.0
 10
10.276325
 20
9.017114
 30
0.0
  0
LWPOLYLINE
  5
17c
100
AcDbEntity
  8
0
 62
7
100
AcDbPolyline
 90
2
 70
0
 10
11.770761
 20
14.885228
 30
0.0
 10
11.145897
 20
14.353707
 30
0.0
  0
SPLINE
  5
17d
100
AcDbEntity
  8
0
 62
7
100
AcDbSpline
 70
8
 71
3
 72
8
 73
4
 74
0
 40
0
 40
0
 40
0
 40
0
 40
1
 40
1
 40
1
 40
1
 10
15.583033
 20
11.833498
 30
0.0
 10
15.372217
 20
12.006291
 30
0.0
 10
15.061845
 20
11.978388
 30
0.0
 10
14.885229
 20
11.770765
 30
0.0
  0
SPLINE
  5
17e
100
AcDbEntity
  8
0
 62
7
100
AcDbSpline
 70
8
 71
3
 72
8
 73
4
 74
0
 40
0
 40
0
 40
0
 40
0
 40
1
 40
1
 40
1
 40
1
 10
15.583033
 20
11.833498
 30
0.0
 10
16.027680
 20
11.469062
 30
0.0
 10
16.483907
 20
11.118988
 30
0.0
 10
16.951009
 20
10.783816
 30
0.0
  0
SPLINE
  5
17f
100
AcDbEntity
  8
0
 62
7
100
AcDbSpline
 70
8
 71
3
 72
8
 73
4
 74
0
 40
0
 40
0
 40
0
 40
0
 40
1
 40
1
 40
1
 40
1
 10
17.071004
 20
10.093545
 30
0.0
 10
17.225850
 20
10.317877
 30
0.0
 10
17.172478
 20
10.624901
 30
0.0
 10
16.951009
 20
10.783816
 30
0.0
  0
LWPOLYLINE
  5
180
100
AcDbEntity
  8
0
 62
7
100
AcDbPolyline
 90
2
 70
0
 10
14.885229
 20
11.770765
 30
0.0
 10
14.353711
 20
11.145898
 30
0.0
  0
SPLINE
  5
181
100
AcDbEntity
  8
0
 62
7
100
AcDbSpline
 70
8
 71
3
 72
8
 73
4
 74
0
 40
0
 40
0
 40
0
 40
0
 40
1
 40
1
 40
1
 40
1
 10
16.604998
 20
9.418434
 30
0.0
 10
16.475898
 20
9.207058
 30
0.0
 10
16.374408
 20
8.980390
 30
0.0
 10
16.284888
 20
8.749435
 30
0.0
  0
SPLINE
  5
182
100
AcDbEntity
  8
0
 62
7
100
AcDbSpline
 70
8
 71
3
 72
8
 73
4
 74
0
 40
0
 40
0
 40
0
 40
0
 40
1
 40
1
 40
1
 40
1
 10
16.284888
 20
8.749435
 30
0.0
 10
16.173000
 20
8.460748
 30
0.0
 10
16.079811
 20
8.165341
 30
0.0
 10
16.000622
 20
7.866309
 30
0.0
  0
SPLINE
  5
183
100
AcDbEntity
  8
0
 62
7
100
AcDbSpline
 70
8
 71
3
 72
8
 73
4
 74
0
 40
0
 40
0
 40
0
 40
0
 40
1
 40
1
 40
1
 40
1
 10
16.000622
 20
7.866309
 30
0.0
 10
15.747223
 20
6.909469
 30
0.0
 10
15.637204
 20
5.915747
 30
0.0
 10
15.604058
 20
4.929010
 30
0.0
  0
SPLINE
  5
184
100
AcDbEntity
  8
0
 62
7
100
AcDbSpline
 70
8
 71
3
 72
8
 73
4
 74
0
 40
0
 40
0
 40
0
 40
0
 40
1
 40
1
 40
1
 40
1
 10
15.604058
 20
4.929010
 30
0.0
 10
16.109899
 20
4.618179
 30
0.0
 10
16.624162
 20
4.321266
 30
0.0
 10
17.146269
 20
4.038608
 30
0.0
  0
SPLINE
  5
185
100
AcDbEntity
  8
0
 62
7
100
AcDbSpline
 70
8
 71
3
 72
8
 73
4
 74
0
 40
0
 40
0
 40
0
 40
0
 40
1
 40
1
 40
1
 40
1
 10
20.533752
 20
7.150161
 30
0.0
 10
20.415258
 20
6.932673
 30
0.0
 10
20.269707
 20
6.731458
 30
0.0
 10
20.114441
 20
6.538444
 30
0.0
  0
SPLINE
  5
186
100
AcDbEntity
  8
0
 62
7
100
AcDbSpline
 70
8
 71
3
 72
8
 73
4
 74
0
 40
0
 40
0
 40
0
 40
0
 40
1
 40
1
 40
1
 40
1
 10
20.114441
 20
6.538444
 30
0.0
 10
19.920381
 20
6.297197
 30
0.0
 10
19.711142
 20
6.068782
 30
0.0
 10
19.491781
 20
5.850686
 30
0.0
  0
SPLINE
  5
187
100
AcDbEntity
  8
0
 62
7
100
AcDbSpline
 70
8
 71
3
 72
8
 73
4
 74
0
 40
0
 40
0
 40
0
 40
0
 40
1
 40
1
 40
1
 40
1
 10
19.491781
 20
5.850686
 30
0.0
 10
18.789834
 20
5.152821
 30
0.0
 10
17.984237
 20
4.560684
 30
0.0
 10
17.146269
 20
4.038608
 30
0.0
  0
LWPOLYLINE
  5
188
100
AcDbEntity
  8
0
 62
7
100
AcDbPolyline
 90
2
 70
0
 10
17.071004
 20
10.093545
 30
0.0
 10
16.604998
 20
9.418434
 30
0.0
  0
SPLINE
  5
189
100
AcDbEntity
  8
0
 62
7
100
AcDbSpline
 70
8
 71
3
 72
8
 73
4
 74
0
 40
0
 40
0
 40
0
 40
0
 40
1
 40
1
 40
1
 40
1
 10
21.543218
 20
8.132506
 30
0.0
 10
21.294860
 20
8.244843
 30
0.0
 10
21.002286
 20
8.137551
 30
0.0
 10
20.885432
 20
7.891285
 30
0.0
  0
SPLINE
  5
18a
100
AcDbEntity
  8
0
 62
7
100
AcDbSpline
 70
8
 71
3
 72
8
 73
4
 74
0
 40
0
 40
0
 40
0
 40
0
 40
1
 40
1
 40
1
 40
1
 10
21.543218
 20
8.132506
 30
0.0
 10
22.067038
 20
7.895575
 30
0.0
 10
22.598326
 20
7.675514
 30
0.0
 10
23.136261
 20
7.472661
 30
0.0
  0
SPLINE
  5
18b
100
AcDbEntity
  8
0
 62
7
100
AcDbSpline
 70
8
 71
3
 72
8
 73
4
 74
0
 40
0
 40
0
 40
0
 40
0
 40
1
 40
1
 40
1
 40
1
 10
23.430821
 20
6.836947
 30
0.0
 10
23.522343
 20
7.093719
 30
0.0
 10
23.391324
 20
7.376481
 30
0.0
 10
23.136261
 20
7.472661
 30
0.0
  0
LWPOLYLINE
  5
18c
100
AcDbEntity
  8
0
 62
7
100
AcDbPolyline
 90
2
 70
0
 10
20.885432
 20
7.891285
 30
0.0
 10
20.533752
 20
7.150161
 30
0.0
  0
SPLINE
  5
18d
100
AcDbEntity
  8
0
 62
7
100
AcDbSpline
 70
8
 71
3
 72
8
 73
4
 74
0
 40
0
 40
0
 40
0
 40
0
 40
1
 40
1
 40
1
 40
1
 10
23.155432
 20
6.064231
 30
0.0
 10
23.085435
 20
5.826636
 30
0.0
 10
23.046068
 20
5.581446
 30
0.0
 10
23.019378
 20
5.335172
 30
0.0
  0
SPLINE
  5
18e
100
AcDbEntity
  8
0
 62
7
100
AcDbSpline
 70
8
 71
3
 72
8
 73
4
 74
0
 40
0
 40
0
 40
0
 40
0
 40
1
 40
1
 40
1
 40
1
 10
23.019378
 20
5.335172
 30
0.0
 10
22.986019
 20
5.027356
 30
0.0
 10
22.972462
 20
4.717899
 30
0.0
 10
22.973363
 20
4.408575
 30
0.0
  0
SPLINE
  5
18f
100
AcDbEntity
  8
0
 62
7
100
AcDbSpline
 70
8
 71
3
 72
8
 73
4
 74
0
 40
0
 40
0
 40
0
 40
0
 40
1
 40
1
 40
1
 40
1
 10
22.973363
 20
4.408575
 30
0.0
 10
22.976247
 20
3.418769
 30
0.0
 10
23.127176
 20
2.430391
 30
0.0
 10
23.350545
 20
1.468710
 30
0.0
  0
SPLINE
  5
190
100
AcDbEntity
  8
0
 62
7
100
AcDbSpline
 70
8
 71
3
 72
8
 73
4
 74
0
 40
0
 40
0
 40
0
 40
0
 40
1
 40
1
 40
1
 40
1
 10
23.350545
 20
1.468710
 30
0.0
 10
23.919599
 20
1.299393
 30
0.0
 10
24.493185
 20
1.145700
 30
0.0
 10
25.070659
 20
1.007806
 30
0.0
  0
SPLINE
  5
191
100
AcDbEntity
  8
0
 62
7
100
AcDbSpline
 70
8
 71
3
 72
8
 73
4
 74
0
 40
0
 40
0
 40
0
 40
0
 40
1
 40
1
 40
1
 40
1
 10
27.537388
 20
4.890090
 30
0.0
 10
27.479220
 20
4.649346
 30
0.0
 10
27.390710
 20
4.417306
 30
0.0
 10
27.290689
 20
4.190664
 30
0.0
  0
SPLINE
  5
192
100
AcDbEntity
  8
0
 62
7
100
AcDbSpline
 70
8
 71
3
 72
8
 73
4
 74
0
 40
0
 40
0
 40
0
 40
0
 40
1
 40
1
 40
1
 40
1
 10
27.290689
 20
4.190664
 30
0.0
 10
27.165678
 20
3.907428
 30
0.0
 10
27.022686
 20
3.632658
 30
0.0
 10
26.867245
 20
3.365217
 30
0.0
  0
SPLINE
  5
193
100
AcDbEntity
  8
0
 62
7
100
AcDbSpline
 70
8
 71
3
 72
8
 73
4
 74
0
 40
0
 40
0
 40
0
 40
0
 40
1
 40
1
 40
1
 40
1
 10
26.867245
 20
3.365217
 30
0.0
 10
26.369837
 20
2.509449
 30
0.0
 10
25.744951
 20
1.728981
 30
0.0
 10
25.070659
 20
1.007806
 30
0.0
  0
LWPOLYLINE
  5
194
100
AcDbEntity
  8
0
 62
7
100
AcDbPolyline
 90
2
 70
0
 10
23.430821
 20
6.836947
 30
0.0
 10
23.155432
 20
6.064231
 30
0.0
  0
SPLINE
  5
195
100
AcDbEntity
  8
0
 62
7
100
AcDbSpline
 70
8
 71
3
 72
8
 73
4
 74
0
 40
0
 40
0
 40
0
 40
0
 40
1
 40
1
 40
1
 40
1
 10
28.258205
 20
6.100241
 30
0.0
 10
27.989233
 20
6.144471
 30
0.0
 10
27.734395
 20
5.965110
 30
0.0
 10
27.685263
 20
5.696990
 30
0.0
  0
SPLINE
  5
196
100
AcDbEntity
  8
0
 62
7
100
AcDbSpline
 70
8
 71
3
 72
8
 73
4
 74
0
 40
0
 40
0
 40
0
 40
0
 40
1
 40
1
 40
1
 40
1
 10
28.258205
 20
6.100241
 30
0.0
 10
28.825499
 20
6.006948
 30
0.0
 10
29.395641
 20
5.931883
 30
0.0
 10
29.967750
 20
5.875160
 30
0.0
  0
SPLINE
  5
197
100
AcDbEntity
  8
0
 62
7
100
AcDbSpline
 70
8
 71
3
 72
8
 73
4
 74
0
 40
0
 40
0
 40
0
 40
0
 40
1
 40
1
 40
1
 40
1
 10
30.416802
 20
5.337368
 30
0.0
 10
30.438735
 20
5.609067
 30
0.0
 10
30.239003
 20
5.848269
 30
0.0
 10
29.967750
 20
5.875160
 30
0.0
  0
LWPOLYLINE
  5
198
100
AcDbEntity
  8
0
 62
7
100
AcDbPolyline
 90
2
 70
0
 10
27.685263
 20
5.696990
 30
0.0
 10
27.537388
 20
4.890090
 30
0.0
  0
SPLINE
  5
199
100
AcDbEntity
  8
0
 62
7
100
AcDbSpline
 70
8
 71
3
 72
8
 73
4
 74
0
 40
0
 40
0
 40
0
 40
0
 40
1
 40
1
 40
1
 40
1
 10
30.350796
 20
4.519673
 30
0.0
 10
30.344673
 20
4.272103
 30
0.0
 10
30.370112
 20
4.025061
 30
0.0
 10
30.408070
 20
3.780269
 30
0.0
  0
SPLINE
  5
19a
100
AcDbEntity
  8
0
 62
7
100
AcDbSpline
 70
8
 71
3
 72
8
 73
4
 74
0
 40
0
 40
0
 40
0
 40
0
 40
1
 40
1
 40
1
 40
1
 10
30.408070
 20
3.780269
 30
0.0
 10
30.455513
 20
3.474305
 30
0.0
 10
30.522513
 20
3.171886
 30
0.0
 10
30.603442
 20
2.873330
 30
0.0
  0
SPLINE
  5
19b
100
AcDbEntity
  8
0
 62
7
100
AcDbSpline
 70
8
 71
3
 72
8
 73
4
 74
0
 40
0
 40
0
 40
0
 40
0
 40
1
 40
1
 40
1
 40
1
 10
30.603442
 20
2.873330
 30
0.0
 10
30.862412
 20
1.917999
 30
0.0
 10
31.264004
 20
1.002382
 30
0.0
 10
31.728668
 20
0.131268
 30
0.0
  0
SPLINE
  5
19c
100
AcDbEntity
  8
0
 62
7
100
AcDbSpline
 70
8
 71
3
 72
8
 73
4
 74
0
 40
0
 40
0
 40
0
 40
0
 40
1
 40
1
 40
1
 40
1
 10
31.728668
 20
0.131268
 30
0.0
 10
32.322154
 20
0.115002
 30
0.0
 10
32.915974
 20
0.115002
 30
0.0
 10
33.509460
 20
0.131268
 30
0.0
  0
SPLINE
  5
19d
100
AcDbEntity
  8
0
 62
7
100
AcDbSpline
 70
8
 71
3
 72
8
 73
4
 74
0
 40
0
 40
0
 40
0
 40
0
 40
1
 40
1
 40
1
 40
1
 10
34.887331
 20
4.519673
 30
0.0
 10
34.893454
 20
4.272103
 30
0.0
 10
34.868016
 20
4.025061
 30
0.0
 10
34.830057
 20
3.780269
 30
0.0
  0
SPLINE
  5
19e
100
AcDbEntity
  8
0
 62
7
100
AcDbSpline
 70
8
 71
3
 72
8
 73
4
 74
0
 40
0
 40
0
 40
0
 40
0
 40
1
 40
1
 40
1
 40
1
 10
34.830057
 20
3.780269
 30
0.0
 10
34.782614
 20
3.474305
 30
0.0
 10
34.715614
 20
3.171886
 30
0.0
 10
34.634685
 20
2.873330
 30
0.0
  0
SPLINE
  5
19f
100
AcDbEntity
  8
0
 62
7
100
AcDbSpline
 70
8
 71
3
 72
8
 73
4
 74
0
 40
0
 40
0
 40
0
 40
0
 40
1
 40
1
 40
1
 40
1
 10
34.634685
 20
2.873330
 30
0.0
 10
34.375715
 20
1.917999
 30
0.0
 10
33.974124
 20
1.002382
 30
0.0
 10
33.509460
 20
0.131268
 30
0.0
  0
LWPOLYLINE
  5
1a0
100
AcDbEntity
  8
0
 62
7
100
AcDbPolyline
 90
2
 70
0
 10
30.416802
 20
5.337368
 30
0.0
 10
30.350796
 20
4.519673
 30
0.0
  0
SPLINE
  5
1a1
100
AcDbEntity
  8
0
 62
7
100
AcDbSpline
 70
8
 71
3
 72
8
 73
4
 74
0
 40
0
 40
0
 40
0
 40
0
 40
1
 40
1
 40
1
 40
1
 10
35.270377
 20
5.875160
 30
0.0
 10
34.999124
 20
5.848269
 30
0.0
 10
34.799392
 20
5.609067
 30
0.0
 10
34.821325
 20
5.337368
 30
0.0
  0
SPLINE
  5
1a2
100
AcDbEntity
  8
0
 62
7
100
AcDbSpline
 70
8
 71
3
 72
8
 73
4
 74
0
 40
0
 40
0
 40
0
 40
0
 40
1
 40
1
 40
1
 40
1
 10
35.270377
 20
5.875160
 30
0.0
 10
35.842486
 20
5.931883
 30
0.0
 10
36.412628
 20
6.006948
 30
0.0
 10
36.979922
 20
6.100241
 30
0.0
  0
SPLINE
  5
1a3
100
AcDbEntity
  8
0
 62
7
100
AcDbSpline
 70
8
 71
3
 72
8
 73
4
 74
0
 40
0
 40
0
 40
0
 40
0
 40
1
 40
1
 40
1
 40
1
 10
37.552864
 20
5.696990
 30
0.0
 10
37.503732
 20
5.965110
 30
0.0
 10
37.248895
 20
6.144471
 30
0.0
 10
36.979922
 20
6.100241
 30
0.0
  0
LWPOLYLINE
  5
1a4
100
AcDbEntity
  8
0
 62
7
100
AcDbPolyline
 90
2
 70
0
 10
34.821325
 20
5.337368
 30
0.0
 10
34.887331
 20
4.519673
 30
0.0
  0
SPLINE
  5
1a5
100
AcDbEntity
  8
0
 62
7
100
AcDbSpline
 70
8
 71
3
 72
8
 73
4
 74
0
 40
0
 40
0
 40
0
 40
0
 40
1
 40
1
 40
1
 40
1
 10
37.700740
 20
4.890090
 30
0.0
 10
37.758907
 20
4.649346
 30
0.0
 10
37.847418
 20
4.417306
 30
0.0
 10
37.947438
 20
4.190664
 30
0.0
  0
SPLINE
  5
1a6
100
AcDbEntity
  8
0
 62
7
100
AcDbSpline
 70
8
 71
3
 72
8
 73
4
 74
0
 40
0
 40
0
 40
0
 40
0
 40
1
 40
1
 40
1
 40
1
 10
37.947438
 20
4.190664
 30
0.0
 10
38.072449
 20
3.907428
 30
0.0
 10
38.215441
 20
3.632658
 30
0.0
 10
38.370883
 20
3.365217
 30
0.0
  0
SPLINE
  5
1a7
100
AcDbEntity
  8
0
 62
7
100
AcDbSpline
 70
8
 71
3
 72
8
 73
4
 74
0
 40
0
 40
0
 40
0
 40
0
 40
1
 40
1
 40
1
 40
1
 10
38.370883
 20
3.365217
 30
0.0
 10
38.868290
 20
2.509449
 30
0.0
 10
39.493177
 20
1.728981
 30
0.0
 10
40.167469
 20
1.007806
 30
0.0
  0
SPLINE
  5
1a8
100
AcDbEntity
  8
0
 62
7
100
AcDbSpline
 70
8
 71
3
 72
8
 73
4
 74
0
 40
0
 40
0
 40
0
 40
0
 40
1
 40
1
 40
1
 40
1
 10
40.167469
 20
1.007806
 30
0.0
 10
40.744942
 20
1.145700
 30
0.0
 10
41.318528
 20
1.299393
 30
0.0
 10
41.887582
 20
1.468710
 30
0.0
  0
SPLINE
  5
1a9
100
AcDbEntity
  8
0
 62
7
100
AcDbSpline
 70
8
 71
3
 72
8
 73
4
 74
0
 40
0
 40
0
 40
0
 40
0
 40
1
 40
1
 40
1
 40
1
 10
42.082695
 20
6.064231
 30
0.0
 10
42.152692
 20
5.826636
 30
0.0
 10
42.192059
 20
5.581446
 30
0.0
 10
42.218750
 20
5.335172
 30
0.0
  0
SPLINE
  5
1aa
100
AcDbEntity
  8
0
 62
7
100
AcDbSpline
 70
8
 71
3
 72
8
 73
4
 74
0
 40
0
 40
0
 40
0
 40
0
 40
1
 40
1
 40
1
 40
1
 10
42.218750
 20
5.335172
 30
0.0
 10
42.252109
 20
5.027356
 30
0.0
 10
42.265665
 20
4.717899
 30
0.0
 10
42.264764
 20
4.408575
 30
0.0
  0
SPLINE
  5
1ab
100
AcDbEntity
  8
0
 62
7
100
AcDbSpline
 70
8
 71
3
 72
8
 73
4
 74
0
 40
0
 40
0
 40
0
 40
0
 40
1
 40
1
 40
1
 40
1
 10
42.264764
 20
4.408575
 30
0.0
 10
42.261880
 20
3.418769
 30
0.0
 10
42.110952
 20
2.430391
 30
0.0
 10
41.887582
 20
1.468710
 30
0.0
  0
LWPOLYLINE
  5
1ac
100
AcDbEntity
  8
0
 62
7
100
AcDbPolyline
 90
2
 70
0
 10
37.552864
 20
5.696990
 30
0.0
 10
37.700740
 20
4.890090
 30
0.0
  0
SPLINE
  5
1ad
100
AcDbEntity
  8
0
 62
7
100
AcDbSpline
 70
8
 71
3
 72
8
 73
4
 74
0
 40
0
 40
0
 40
0
 40
0
 40
1
 40
1
 40
1
 40
1
 10
42.101866
 20
7.472661
 30
0.0
 10
41.846803
 20
7.376481
 30
0.0
 10
41.715784
 20
7.093719
 30
0.0
 10
41.807306
 20
6.836947
 30
0.0
  0
SPLINE
  5
1ae
100
AcDbEntity
  8
0
 62
7
100
AcDbSpline
 70
8
 71
3
 72
8
 73
4
 74
0
 40
0
 40
0
 40
0
 40
0
 40
1
 40
1
 40
1
 40
1
 10
42.101866
 20
7.472661
 30
0.0
 10
42.639801
 20
7.675514
 30
0.0
 10
43.171089
 20
7.895575
 30
0.0
 10
43.694909
 20
8.132506
 30
0.0
  0
SPLINE
  5
1af
100
AcDbEntity
  8
0
 62
7
100
AcDbSpline
 70
8
 71
3
 72
8
 73
4
 74
0
 40
0
 40
0
 40
0
 40
0
 40
1
 40
1
 40
1
 40
1
 10
44.352695
 20
7.891285
 30
0.0
 10
44.235842
 20
8.137551
 30
0.0
 10
43.943268
 20
8.244843
 30
0.0
 10
43.694909
 20
8.132506
 30
0.0
  0
LWPOLYLINE
  5
1b0
100
AcDbEntity
  8
0
 62
7
100
AcDbPolyline
 90
2
 70
0
 10
41.807306
 20
6.836947
 30
0.0
 10
42.082695
 20
6.064231
 30
0.0
  0
SPLINE
  5
1b1
100
AcDbEntity
  8
0
 62
7
100
AcDbSpline
 70
8
 71
3
 72
8
 73
4
 74
0
 40
0
 40
0
 40
0
 40
0
 40
1
 40
1
 40
1
 40
1
 10
44.704375
 20
7.150161
 30
0.0
 10
44.822870
 20
6.932673
 30
0.0
 10
44.968420
 20
6.731458
 30
0.0
 10
45.123687
 20
6.538444
 30
0.0
  0
SPLINE
  5
1b2
100
AcDbEntity
  8
0
 62
7
100
AcDbSpline
 70
8
 71
3
 72
8
 73
4
 74
0
 40
0
 40
0
 40
0
 40
0
 40
1
 40
1
 40
1
 40
1
 10
45.123687
 20
6.538444
 30
0.0
 10
45.317747
 20
6.297197
 30
0.0
 10
45.526985
 20
6.068782
 30
0.0
 10
45.746346
 20
5.850686
 30
0.0
  0
SPLINE
  5
1b3
100
AcDbEntity
  8
0
 62
7
100
AcDbSpline
 70
8
 71
3
 72
8
 73
4
 74
0
 40
0
 40
0
 40
0
 40
0
 40
1
 40
1
 40
1
 40
1
 10
45.746346
 20
5.850686
 30
0.0
 10
46.448294
 20
5.152821
 30
0.0
 10
47.253890
 20
4.560684
 30
0.0
 10
48.091858
 20
4.038608
 30
0.0
  0
SPLINE
  5
1b4
100
AcDbEntity
  8
0
 62
7
100
AcDbSpline
 70
8
 71
3
 72
8
 73
4
 74
0
 40
0
 40
0
 40
0
 40
0
 40
1
 40
1
 40
1
 40
1
 10
48.091858
 20
4.038608
 30
0.0
 10
48.613965
 20
4.321266
 30
0.0
 10
49.128229
 20
4.618179
 30
0.0
 10
49.634070
 20
4.929010
 30
0.0
  0
SPLINE
  5
1b5
100
AcDbEntity
  8
0
 62
7
100
AcDbSpline
 70
8
 71
3
 72
8
 73
4
 74
0
 40
0
 40
0
 40
0
 40
0
 40
1
 40
1
 40
1
 40
1
 10
48.633129
 20
9.418434
 30
0.0
 10
48.762229
 20
9.207058
 30
0.0
 10
48.863719
 20
8.980390
 30
0.0
 10
48.953240
 20
8.749435
 30
0.0
  0
SPLINE
  5
1b6
100
AcDbEntity
  8
0
 62
7
100
AcDbSpline
 70
8
 71
3
 72
8
 73
4
 74
0
 40
0
 40
0
 40
0
 40
0
 40
1
 40
1
 40
1
 40
1
 10
48.953240
 20
8.749435
 30
0.0
 10
49.065127
 20
8.460748
 30
0.0
 10
49.158317
 20
8.165341
 30
0.0
 10
49.237505
 20
7.866309
 30
0.0
  0
SPLINE
  5
1b7
100
AcDbEntity
  8
0
 62
7
100
AcDbSpline
 70
8
 71
3
 72
8
 73
4
 74
0
 40
0
 40
0
 40
0
 40
0
 40
1
 40
1
 40
1
 40
1
 10
49.237505
 20
7.866309
 30
0.0
 10
49.490904
 20
6.909469
 30
0.0
 10
49.600923
 20
5.915747
 30
0.0
 10
49.634070
 20
4.929010
 30
0.0
  0
LWPOLYLINE
  5
1b8
100
AcDbEntity
  8
0
 62
7
100
AcDbPolyline
 90
2
 70
0
 10
44.352695
 20
7.891285
 30
0.0
 10
44.704375
 20
7.150161
 30
0.0
  0
SPLINE
  5
1b9
100
AcDbEntity
  8
0
 62
7
100
AcDbSpline
 70
8
 71
3
 72
8
 73
4
 74
0
 40
0
 40
0
 40
0
 40
0
 40
1
 40
1
 40
1
 40
1
 10
48.287118
 20
10.783816
 30
0.0
 10
48.065649
 20
10.624901
 30
0.0
 10
48.012277
 20
10.317877
 30
0.0
 10
48.167123
 20
10.093545
 30
0.0
  0
SPLINE
  5
1ba
100
AcDbEntity
  8
0
 62
7
100
AcDbSpline
 70
8
 71
3
 72
8
 73
4
 74
0
 40
0
 40
0
 40
0
 40
0
 40
1
 40
1
 40
1
 40
1
 10
48.287118
 20
10.783816
 30
0.0
 10
48.754220
 20
11.118988
 30
0.0
 10
49.210447
 20
11.469062
 30
0.0
 10
49.655095
 20
11.833498
 30
0.0
  0
SPLINE
  5
1bb
100
AcDbEntity
  8
0
 62
7
100
AcDbSpline
 70
8
 71
3
 72
8
 73
4
 74
0
 40
0
 40
0
 40
0
 40
0
 40
1
 40
1
 40
1
 40
1
 10
50.352899
 20
11.770765
 30
0.0
 10
50.176283
 20
11.978388
 30
0.0
 10
49.865910
 20
12.006291
 30
0.0
 10
49.655095
 20
11.833498
 30
0.0
  0
LWPOLYLINE
  5
1bc
100
AcDbEntity
  8
0
 62
7
100
AcDbPolyline
 90
2
 70
0
 10
48.167123
 20
10.093545
 30
0.0
 10
48.633129
 20
9.418434
 30
0.0
  0
SPLINE
  5
1bd
100
AcDbEntity
  8
0
 62
7
100
AcDbSpline
 70
8
 71
3
 72
8
 73
4
 74
0
 40
0
 40
0
 40
0
 40
0
 40
1
 40
1
 40
1
 40
1
 10
50.884416
 20
11.145898
 30
0.0
 10
51.055163
 20
10.966484
 30
0.0
 10
51.247834
 20
10.809798
 30
0.0
 10
51.447765
 20
10.663536
 30
0.0
  0
SPLINE
  5
1be
100
AcDbEntity
  8
0
 62
7
100
AcDbSpline
 70
8
 71
3
 72
8
 73
4
 74
0
 40
0
 40
0
 40
0
 40
0
 40
1
 40
1
 40
1
 40
1
 10
51.447765
 20
10.663536
 30
0.0
 10
51.697649
 20
10.480762
 30
0.0
 10
51.958876
 20
10.314286
 30
0.0
 10
52.227207
 20
10.160405
 30
0.0
  0
SPLINE
  5
1bf
100
AcDbEntity
  8
0
 62
7
100
AcDbSpline
 70
8
 71
3
 72
8
 73
4
 74
0
 40
0
 40
0
 40
0
 40
0
 40
1
 40
1
 40
1
 40
1
 10
52.227207
 20
10.160405
 30
0.0
 10
53.085858
 20
9.667989
 30
0.0
 10
54.017264
 20
9.304504
 30
0.0
 10
54.961803
 20
9.017114
 30
0.0
  0
SPLINE
  5
1c0
100
AcDbEntity
  8
0
 62
7
100
AcDbSpline
 70
8
 71
3
 72
8
 73
4
 74
0
 40
0
 40
0
 40
0
 40
0
 40
1
 40
1
 40
1
 40
1
 10
54.961803
 20
9.017114
 30
0.0
 10
55.392962
 20
9.425268
 30
0.0
 10
55.812857
 20
9.845161
 30
0.0
 10
56.221013
 20
10.276319
 30
0.0
  0
SPLINE
  5
1c1
100
AcDbEntity
  8
0
 62
7
100
AcDbSpline
 70
8
 71
3
 72
8
 73
4
 74
0
 40
0
 40
0
 40
0
 40
0
 40
1
 40
1
 40
1
 40
1
 10
54.092231
 20
14.353707
 30
0.0
 10
54.271636
 20
14.182971
 30
0.0
 10
54.428332
 20
13.990301
 30
0.0
 10
54.574582
 20
13.790356
 30
0.0
  0
SPLINE
  5
1c2
100
AcDbEntity
  8
0
 62
7
100
AcDbSpline
 70
8
 71
3
 72
8
 73
4
 74
0
 40
0
 40
0
 40
0
 40
0
 40
1
 40
1
 40
1
 40
1
 10
54.574582
 20
13.790356
 30
0.0
 10
54.757373
 20
13.540483
 30
0.0
 10
54.923846
 20
13.279260
 30
0.0
 10
55.077726
 20
13.010920
 30
0.0
  0
SPLINE
  5
1c3
100
AcDbEntity
  8
0
 62
7
100
AcDbSpline
 70
8
 71
3
 72
8
 73
4
 74
0
 40
0
 40
0
 40
0
 40
0
 40
1
 40
1
 40
1
 40
1
 10
55.077726
 20
13.010920
 30
0.0
 10
55.570139
 20
12.152268
 30
0.0
 10
55.933609
 20
11.220855
 30
0.0
 10
56.221013
 20
10.276319
 30
0.0
  0
LWPOLYLINE
  5
1c4
100
AcDbEntity
  8
0
 62
7
100
AcDbPolyline
 90
2
 70
0
 10
50.352899
 20
11.770765
 30
0.0
 10
50.884416
 20
11.145898
 30
0.0
  0
SPLINE
  5
1c5
100
AcDbEntity
  8
0
 62
7
100
AcDbSpline
 70
8
 71
3
 72
8
 73
4
 74
0
 40
0
 40
0
 40
0
 40
0
 40
1
 40
1
 40
1
 40
1
 10
53.404618
 20
15.583040
 30
0.0
 10
53.231823
 20
15.372219
 30
0.0
 10
53.259733
 20
15.061840
 30
0.0
 10
53.467366
 20
14.885228
 30
0.0
  0
SPLINE
  5
1c6
100
AcDbEntity
  8
0
 62
7
100
AcDbSpline
 70
8
 71
3
 72
8
 73
4
 74
0
 40
0
 40
0
 40
0
 40
0
 40
1
 40
1
 40
1
 40
1
 10
53.404618
 20
15.583040
 30
0.0
 10
53.769055
 20
16.027687
 30
0.0
 10
54.119130
 20
16.483914
 30
0.0
 10
54.454303
 20
16.951015
 30
0.0
  0
SPLINE
  5
1c7
100
AcDbEntity
  8
0
 62
7
100
AcDbSpline
 70
8
 71
3
 72
8
 73
4
 74
0
 40
0
 40
0
 40
0
 40
0
 40
1
 40
1
 40
1
 40
1
 10
55.144571
 20
17.071004
 30
0.0
 10
54.920240
 20
17.225849
 30
0.0
 10
54.613220
 20
17.172479
 30
0.0
 10
54.454303
 20
16.951015
 30
0.0
  0
LWPOLYLINE
  5
1c8
100
AcDbEntity
  8
0
 62
7
100
AcDbPolyline
 90
2
 70
0
 10
53.467366
 20
14.885228
 30
0.0
 10
54.092231
 20
14.353707
 30
0.0
  0
SPLINE
  5
1c9
100
AcDbEntity
  8
0
 62
7
100
AcDbSpline
 70
8
 71
3
 72
8
 73
4
 74
0
 40
0
 40
0
 40
0
 40
0
 40
1
 40
1
 40
1
 40
1
 10
55.819704
 20
16.604993
 30
0.0
 10
56.031066
 20
16.475903
 30
0.0
 10
56.257728
 20
16.374409
 30
0.0
 10
56.488699
 20
16.284874
 30
0.0
  0
SPLINE
  5
1ca
100
AcDbEntity
  8
0
 62
7
100
AcDbSpline
 70
8
 71
3
 72
8
 73
4
 74
0
 40
0
 40
0
 40
0
 40
0
 40
1
 40
1
 40
1
 40
1
 10
56.488699
 20
16.284874
 30
0.0
 10
56.777379
 20
16.173008
 30
0.0
 10
57.072790
 20
16.079822
 30
0.0
 10
57.371805
 20
16.000632
 30
0.0
  0
SPLINE
  5
1cb
100
AcDbEntity
  8
0
 62
7
100
AcDbSpline
 70
8
 71
3
 72
8
 73
4
 74
0
 40
0
 40
0
 40
0
 40
0
 40
1
 40
1
 40
1
 40
1
 10
57.371805
 20
16.000632
 30
0.0
 10
58.328644
 20
15.747214
 30
0.0
 10
59.322388
 20
15.637200
 30
0.0
 10
60.309128
 20
15.604048
 30
0.0
  0
SPLINE
  5
1cc
100
AcDbEntity
  8
0
 62
7
100
AcDbSpline
 70
8
 71
3
 72
8
 73
4
 74
0
 40
0
 40
0
 40
0
 40
0
 40
1
 40
1
 40
1
 40
1
 10
60.309128
 20
15.604048
 30
0.0
 10
60.619957
 20
16.109895
 30
0.0
 10
60.916866
 20
16.624165
 30
0.0
 10
61.199522
 20
17.146278
 30
0.0
  0
SPLINE
  5
1cd
100
AcDbEntity
  8
0
 62
7
100
AcDbSpline
 70
8
 71
3
 72
8
 73
4
 74
0
 40
0
 40
0
 40
0
 40
0
 40
1
 40
1
 40
1
 40
1
 10
58.087971
 20
20.533738
 30
0.0
 10
58.305456
 20
20.415258
 30
0.0
 10
58.506680
 20
20.269711
 30
0.0
 10
58.699693
 20
20.114427
 30
0.0
  0
SPLINE
  5
1ce
100
AcDbEntity
  8
0
 62
7
100
AcDbSpline
 70
8
 71
3
 72
8
 73
4
 74
0
 40
0
 40
0
 40
0
 40
0
 40
1
 40
1
 40
1
 40
1
 10
58.699693
 20
20.114427
 30
0.0
 10
58.940929
 20
19.920381
 30
0.0
 10
59.169340
 20
19.711149
 30
0.0
 10
59.387428
 20
19.491783
 30
0.0
  0
SPLINE
  5
1cf
100
AcDbEntity
  8
0
 62
7
100
AcDbSpline
 70
8
 71
3
 72
8
 73
4
 74
0
 40
0
 40
0
 40
0
 40
0
 40
1
 40
1
 40
1
 40
1
 10
59.387428
 20
19.491783
 30
0.0
 10
60.085295
 20
18.789843
 30
0.0
 10
60.677446
 20
17.984240
 30
0.0
 10
61.199522
 20
17.146278
 30
0.0
  0
LWPOLYLINE
  5
1d0
100
AcDbEntity
  8
0
 62
7
100
AcDbPolyline
 90
2
 70
0
 10
55.144571
 20
17.071004
 30
0.0
 10
55.819704
 20
16.604993
 30
0.0
  0
SPLINE
  5
1d1
100
AcDbEntity
  8
0
 62
7
100
AcDbSpline
 70
8
 71
3
 72
8
 73
4
 74
0
 40
0
 40
0
 40
0
 40
0
 40
1
 40
1
 40
1
 40
1
 10
57.105617
 20
21.543230
 30
0.0
 10
56.993265
 20
21.294867
 30
0.0
 10
57.100556
 20
21.002278
 30
0.0
 10
57.346832
 20
20.885423
 30
0.0
  0
SPLINE
  5
1d2
100
AcDbEntity
  8
0
 62
7
100
AcDbSpline
 70
8
 71
3
 72
8
 73
4
 74
0
 40
0
 40
0
 40
0
 40
0
 40
1
 40
1
 40
1
 40
1
 10
57.105617
 20
21.543230
 30
0.0
 10
57.342552
 20
22.067045
 30
0.0
 10
57.562619
 20
22.598328
 30
0.0
 10
57.765476
 20
23.136259
 30
0.0
  0
SPLINE
  5
1d3
100
AcDbEntity
  8
0
 62
7
100
AcDbSpline
 70
8
 71
3
 72
8
 73
4
 74
0
 40
0
 40
0
 40
0
 40
0
 40
1
 40
1
 40
1
 40
1
 10
58.401166
 20
23.430820
 30
0.0
 10
58.144402
 20
23.522326
 30
0.0
 10
57.861657
 20
23.391310
 30
0.0
 10
57.765476
 20
23.136259
 30
0.0
  0
LWPOLYLINE
  5
1d4
100
AcDbEntity
  8
0
 62
7
100
AcDbPolyline
 90
2
 70
0
 10
57.346832
 20
20.885423
 30
0.0
 10
58.087971
 20
20.533738
 30
0.0
  0
SPLINE
  5
1d5
100
AcDbEntity
  8
0
 62
7
100
AcDbSpline
 70
8
 71
3
 72
8
 73
4
 74
0
 40
0
 40
0
 40
0
 40
0
 40
1
 40
1
 40
1
 40
1
 10
59.173906
 20
23.155442
 30
0.0
 10
59.411481
 20
23.085433
 30
0.0
 10
59.656686
 20
23.046063
 30
0.0
 10
59.902958
 20
23.019366
 30
0.0
  0
SPLINE
  5
1d6
100
AcDbEntity
  8
0
 62
7
100
AcDbSpline
 70
8
 71
3
 72
8
 73
4
 74
0
 40
0
 40
0
 40
0
 40
0
 40
1
 40
1
 40
1
 40
1
 10
59.902958
 20
23.019366
 30
0.0
 10
60.210758
 20
22.986029
 30
0.0
 10
60.520223
 20
22.972456
 30
0.0
 10
60.829545
 20
22.973355
 30
0.0
  0
SPLINE
  5
1d7
100
AcDbEntity
  8
0
 62
7
100
AcDbSpline
 70
8
 71
3
 72
8
 73
4
 74
0
 40
0
 40
0
 40
0
 40
0
 40
1
 40
1
 40
1
 40
1
 10
60.829545
 20
22.973355
 30
0.0
 10
61.819364
 20
22.976266
 30
0.0
 10
62.807723
 20
23.127184
 30
0.0
 10
63.769417
 20
23.350545
 30
0.0
  0
SPLINE
  5
1d8
100
AcDbEntity
  8
0
 62
7
100
AcDbSpline
 70
8
 71
3
 72
8
 73
4
 74
0
 40
0
 40
0
 40
0
 40
0
 40
1
 40
1
 40
1
 40
1
 10
63.769417
 20
23.350545
 30
0.0
 10
63.938735
 20
23.919598
 30
0.0
 10
64.092427
 20
24.493183
 30
0.0
 10
64.230321
 20
25.070655
 30
0.0
  0
SPLINE
  5
1d9
100
AcDbEntity
  8
0
 62
7
100
AcDbSpline
 70
8
 71
3
 72
8
 73
4
 74
0
 40
0
 40
0
 40
0
 40
0
 40
1
 40
1
 40
1
 40
1
 10
60.348048
 20
27.537391
 30
0.0
 10
60.588792
 20
27.479210
 30
0.0
 10
60.820829
 20
27.390706
 30
0.0
 10
61.047450
 20
27.290694
 30
0.0
  0
SPLINE
  5
1da
100
AcDbEntity
  8
0
 62
7
100
AcDbSpline
 70
8
 71
3
 72
8
 73
4
 74
0
 40
0
 40
0
 40
0
 40
0
 40
1
 40
1
 40
1
 40
1
 10
61.047450
 20
27.290694
 30
0.0
 10
61.330694
 20
27.165678
 30
0.0
 10
61.605478
 20
27.022698
 30
0.0
 10
61.872908
 20
26.867255
 30
0.0
  0
SPLINE
  5
1db
100
AcDbEntity
  8
0
 62
7
100
AcDbSpline
 70
8
 71
3
 72
8
 73
4
 74
0
 40
0
 40
0
 40
0
 40
0
 40
1
 40
1
 40
1
 40
1
 10
61.872908
 20
26.867255
 30
0.0
 10
62.728676
 20
26.369838
 30
0.0
 10
63.509152
 20
25.744945
 30
0.0
 10
64.230321
 20
25.070655
 30
0.0
  0
LWPOLYLINE
  5
1dc
100
AcDbEntity
  8
0
 62
7
100
AcDbPolyline
 90
2
 70
0
 10
58.401166
 20
23.430820
 30
0.0
 10
59.173906
 20
23.155442
 30
0.0
  0
SPLINE
  5
1dd
100
AcDbEntity
  8
0
 62
7
100
AcDbSpline
 70
8
 71
3
 72
8
 73
4
 74
0
 40
0
 40
0
 40
0
 40
0
 40
1
 40
1
 40
1
 40
1
 10
59.137897
 20
28.258196
 30
0.0
 10
59.093674
 20
27.989230
 30
0.0
 10
59.273029
 20
27.734403
 30
0.0
 10
59.541140
 20
27.685267
 30
0.0
  0
SPLINE
  5
1de
100
AcDbEntity
  8
0
 62
7
100
AcDbSpline
 70
8
 71
3
 72
8
 73
4
 74
0
 40
0
 40
0
 40
0
 40
0
 40
1
 40
1
 40
1
 40
1
 10
59.137897
 20
28.258196
 30
0.0
 10
59.231185
 20
28.825493
 30
0.0
 10
59.306247
 20
29.395637
 30
0.0
 10
59.362964
 20
29.967748
 30
0.0
  0
SPLINE
  5
1df
100
AcDbEntity
  8
0
 62
7
100
AcDbSpline
 70
8
 71
3
 72
8
 73
4
 74
0
 40
0
 40
0
 40
0
 40
0
 40
1
 40
1
 40
1
 40
1
 10
59.900754
 20
30.416799
 30
0.0
 10
59.629056
 20
30.438730
 30
0.0
 10
59.389856
 20
30.238999
 30
0.0
 10
59.362964
 20
29.967748
 30
0.0
  0
LWPOLYLINE
  5
1e0
100
AcDbEntity
  8
0
 62
7
100
AcDbPolyline
 90
2
 70
0
 10
59.541140
 20
27.685267
 30
0.0
 10
60.348048
 20
27.537391
 30
0.0
  0
SPLINE
  5
1e1
100
AcDbEntity
  8
0
 62
7
100
AcDbSpline
 70
8
 71
3
 72
8
 73
4
 74
0
 40
0
 40
0
 40
0
 40
0
 40
1
 40
1
 40
1
 40
1
 10
60.718441
 20
30.350785
 30
0.0
 10
60.966035
 20
30.344700
 30
0.0
 10
61.213074
 20
30.370100
 30
0.0
 10
61.457861
 20
30.408068
 30
0.0
  0
SPLINE
  5
1e2
100
AcDbEntity
  8
0
 62
7
100
AcDbSpline
 70
8
 71
3
 72
8
 73
4
 74
0
 40
0
 40
0
 40
0
 40
0
 40
1
 40
1
 40
1
 40
1
 10
61.457861
 20
30.408068
 30
0.0
 10
61.763809
 20
30.455508
 30
0.0
 10
62.066239
 20
30.522500
 30
0.0
 10
62.364787
 20
30.603436
 30
0.0
  0
SPLINE
  5
1e3
100
AcDbEntity
  8
0
 62
7
100
AcDbSpline
 70
8
 71
3
 72
8
 73
4
 74
0
 40
0
 40
0
 40
0
 40
0
 40
1
 40
1
 40
1
 40
1
 10
62.364787
 20
30.603436
 30
0.0
 10
63.320134
 20
30.862410
 30
0.0
 10
64.235748
 20
31.263995
 30
0.0
 10
65.106865
 20
31.728656
 30
0.0
  0
SPLINE
  5
1e4
100
AcDbEntity
  8
0
 62
7
100
AcDbSpline
 70
8
 71
3
 72
8
 73
4
 74
0
 40
0
 40
0
 40
0
 40
0
 40
1
 40
1
 40
1
 40
1
 10
65.106865
 20
31.728656
 30
0.0
 10
65.123131
 20
32.322146
 30
0.0
 10
65.123131
 20
32.915971
 30
0.0
 10
65.106865
 20
33.509461
 30
0.0
  0
SPLINE
  5
1e5
100
AcDbEntity
  8
0
 62
7
100
AcDbSpline
 70
8
 71
3
 72
8
 73
4
 74
0
 40
0
 40
0
 40
0
 40
0
 40
1
 40
1
 40
1
 40
1
 10
60.718441
 20
34.887331
 30
0.0
 10
60.966035
 20
34.893417
 30
0.0
 10
61.213074
 20
34.868017
 30
0.0
 10
61.457861
 20
34.830049
 30
0.0
  0
SPLINE
  5
1e6
100
AcDbEntity
  8
0
 62
7
100
AcDbSpline
 70
8
 71
3
 72
8
 73
4
 74
0
 40
0
 40
0
 40
0
 40
0
 40
1
 40
1
 40
1
 40
1
 10
61.457861
 20
34.830049
 30
0.0
 10
61.763809
 20
34.782609
 30
0.0
 10
62.066239
 20
34.715617
 30
0.0
 10
62.364787
 20
34.634681
 30
0.0
  0
SPLINE
  5
1e7
100
AcDbEntity
  8
0
 62
7
100
AcDbSpline
 70
8
 71
3
 72
8
 73
4
 74
0
 40
0
 40
0
 40
0
 40
0
 40
1
 40
1
 40
1
 40
1
 10
62.364787
 20
34.634681
 30
0.0
 10
63.320134
 20
34.375706
 30
0.0
 10
64.235748
 20
33.974122
 30
0.0
 10
65.106865
 20
33.509461
 30
0.0
  0
LWPOLYLINE
  5
1e8
100
AcDbEntity
  8
0
 62
7
100
AcDbPolyline
 90
2
 70
0
 10
59.900754
 20
30.416799
 30
0.0
 10
60.718441
 20
30.350785
 30
0.0
  0
SPLINE
  5
1e9
100
AcDbEntity
  8
0
 62
7
100
AcDbSpline
 70
8
 71
3
 72
8
 73
4
 74
0
 40
0
 40
0
 40
0
 40
0
 40
1
 40
1
 40
1
 40
1
 10
59.362964
 20
35.270369
 30
0.0
 10
59.389856
 20
34.999117
 30
0.0
 10
59.629056
 20
34.799387
 30
0.0
 10
59.900754
 20
34.821318
 30
0.0
  0
SPLINE
  5
1ea
100
AcDbEntity
  8
0
 62
7
100
AcDbSpline
 70
8
 71
3
 72
8
 73
4
 74
0
 40
0
 40
0
 40
0
 40
0
 40
1
 40
1
 40
1
 40
1
 10
59.362964
 20
35.270369
 30
0.0
 10
59.306247
 20
35.842480
 30
0.0
 10
59.231185
 20
36.412624
 30
0.0
 10
59.137897
 20
36.979921
 30
0.0
  0
SPLINE
  5
1eb
100
AcDbEntity
  8
0
 62
7
100
AcDbSpline
 70
8
 71
3
 72
8
 73
4
 74
0
 40
0
 40
0
 40
0
 40
0
 40
1
 40
1
 40
1
 40
1
 10
59.541140
 20
37.552850
 30
0.0
 10
59.273029
 20
37.503714
 30
0.0
 10
59.093674
 20
37.248886
 30
0.0
 10
59.137897
 20
36.979921
 30
0.0
  0
LWPOLYLINE
  5
1ec
100
AcDbEntity
  8
0
 62
7
100
AcDbPolyline
 90
2
 70
0
 10
59.900754
 20
34.821318
 30
0.0
 10
60.718441
 20
34.887331
 30
0.0
  0
SPLINE
  5
1ed
100
AcDbEntity
  8
0
 62
7
100
AcDbSpline
 70
8
 71
3
 72
8
 73
4
 74
0
 40
0
 40
0
 40
0
 40
0
 40
1
 40
1
 40
1
 40
1
 10
60.348048
 20
37.700725
 30
0.0
 10
60.588792
 20
37.758907
 30
0.0
 10
60.820829
 20
37.847410
 30
0.0
 10
61.047450
 20
37.947449
 30
0.0
  0
SPLINE
  5
1ee
100
AcDbEntity
  8
0
 62
7
100
AcDbSpline
 70
8
 71
3
 72
8
 73
4
 74
0
 40
0
 40
0
 40
0
 40
0
 40
1
 40
1
 40
1
 40
1
 10
61.047450
 20
37.947449
 30
0.0
 10
61.330694
 20
38.072438
 30
0.0
 10
61.605478
 20
38.215446
 30
0.0
 10
61.872908
 20
38.370888
 30
0.0
  0
SPLINE
  5
1ef
100
AcDbEntity
  8
0
 62
7
100
AcDbSpline
 70
8
 71
3
 72
8
 73
4
 74
0
 40
0
 40
0
 40
0
 40
0
 40
1
 40
1
 40
1
 40
1
 10
61.872908
 20
38.370888
 30
0.0
 10
62.728676
 20
38.868279
 30
0.0
 10
63.509152
 20
39.493171
 30
0.0
 10
64.230321
 20
40.167462
 30
0.0
  0
SPLINE
  5
1f0
100
AcDbEntity
  8
0
 62
7
100
AcDbSpline
 70
8
 71
3
 72
8
 73
4
 74
0
 40
0
 40
0
 40
0
 40
0
 40
1
 40
1
 40
1
 40
1
 10
64.230321
 20
40.167462
 30
0.0
 10
64.092427
 20
40.744934
 30
0.0
 10
63.938735
 20
41.318519
 30
0.0
 10
63.769417
 20
41.887571
 30
0.0
  0
SPLINE
  5
1f1
100
AcDbEntity
  8
0
 62
7
100
AcDbSpline
 70
8
 71
3
 72
8
 73
4
 74
0
 40
0
 40
0
 40
0
 40
0
 40
1
 40
1
 40
1
 40
1
 10
59.173906
 20
42.082701
 30
0.0
 10
59.411481
 20
42.152684
 30
0.0
 10
59.656686
 20
42.192054
 30
0.0
 10
59.902958
 20
42.218750
 30
0.0
  0
SPLINE
  5
1f2
100
AcDbEntity
  8
0
 62
7
100
AcDbSpline
 70
8
 71
3
 72
8
 73
4
 74
0
 40
0
 40
0
 40
0
 40
0
 40
1
 40
1
 40
1
 40
1
 10
59.902958
 20
42.218750
 30
0.0
 10
60.210758
 20
42.252114
 30
0.0
 10
60.520223
 20
42.265661
 30
0.0
 10
60.829545
 20
42.264761
 30
0.0
  0
SPLINE
  5
1f3
100
AcDbEntity
  8
0
 62
7
100
AcDbSpline
 70
8
 71
3
 72
8
 73
4
 74
0
 40
0
 40
0
 40
0
 40
0
 40
1
 40
1
 40
1
 40
1
 10
60.829545
 20
42.264761
 30
0.0
 10
61.819364
 20
42.261851
 30
0.0
 10
62.807723
 20
42.110959
 30
0.0
 10
63.769417
 20
41.887571
 30
0.0
  0
LWPOLYLINE
  5
1f4
100
AcDbEntity
  8
0
 62
7
100
AcDbPolyline
 90
2
 70
0
 10
59.541140
 20
37.552850
 30
0.0
 10
60.348048
 20
37.700725
 30
0.0
  0
SPLINE
  5
1f5
100
AcDbEntity
  8
0
 62
7
100
AcDbSpline
 70
8
 71
3
 72
8
 73
4
 74
0
 40
0
 40
0
 40
0
 40
0
 40
1
 40
1
 40
1
 40
1
 10
57.765476
 20
42.101857
 30
0.0
 10
57.861657
 20
41.846807
 30
0.0
 10
58.144402
 20
41.715791
 30
0.0
 10
58.401166
 20
41.807297
 30
0.0
  0
SPLINE
  5
1f6
100
AcDbEntity
  8
0
 62
7
100
AcDbSpline
 70
8
 71
3
 72
8
 73
4
 74
0
 40
0
 40
0
 40
0
 40
0
 40
1
 40
1
 40
1
 40
1
 10
57.765476
 20
42.101857
 30
0.0
 10
57.562619
 20
42.639797
 30
0.0
 10
57.342553
 20
43.171089
 30
0.0
 10
57.105617
 20
43.694914
 30
0.0
  0
SPLINE
  5
1f7
100
AcDbEntity
  8
0
 62
7
100
AcDbSpline
 70
8
 71
3
 72
8
 73
4
 74
0
 40
0
 40
0
 40
0
 40
0
 40
1
 40
1
 40
1
 40
1
 10
57.346832
 20
44.352694
 30
0.0
 10
57.100571
 20
44.235839
 30
0.0
 10
56.993283
 20
43.943269
 30
0.0
 10
57.105617
 20
43.694914
 30
0.0
  0
LWPOLYLINE
  5
1f8
100
AcDbEntity
  8
0
 62
7
100
AcDbPolyline
 90
2
 70
0
 10
58.401166
 20
41.807297
 30
0.0
 10
59.173906
 20
42.082701
 30
0.0
  0
SPLINE
  5
1f9
100
AcDbEntity
  8
0
 62
7
100
AcDbSpline
 70
8
 71
3
 72
8
 73
4
 74
0
 40
0
 40
0
 40
0
 40
0
 40
1
 40
1
 40
1
 40
1
 10
58.087971
 20
44.704378
 30
0.0
 10
58.305456
 20
44.822859
 30
0.0
 10
58.506680
 20
44.968406
 30
0.0
 10
58.699693
 20
45.123690
 30
0.0
  0
SPLINE
  5
1fa
100
AcDbEntity
  8
0
 62
7
100
AcDbSpline
 70
8
 71
3
 72
8
 73
4
 74
0
 40
0
 40
0
 40
0
 40
0
 40
1
 40
1
 40
1
 40
1
 10
58.699693
 20
45.123690
 30
0.0
 10
58.940929
 20
45.317735
 30
0.0
 10
59.169340
 20
45.526994
 30
0.0
 10
59.387428
 20
45.746334
 30
0.0
  0
SPLINE
  5
1fb
100
AcDbEntity
  8
0
 62
7
100
AcDbSpline
 70
8
 71
3
 72
8
 73
4
 74
0
 40
0
 40
0
 40
0
 40
0
 40
1
 40
1
 40
1
 40
1
 10
59.387428
 20
45.746334
 30
0.0
 10
60.085295
 20
46.448300
 30
0.0
 10
60.677446
 20
47.253877
 30
0.0
 10
61.199522
 20
48.091865
 30
0.0
  0
SPLINE
  5
1fc
100
AcDbEntity
  8
0
 62
7
100
AcDbSpline
 70
8
 71
3
 72
8
 73
4
 74
0
 40
0
 40
0
 40
0
 40
0
 40
1
 40
1
 40
1
 40
1
 10
61.199522
 20
48.091865
 30
0.0
 10
60.916866
 20
48.613969
 30
0.0
 10
60.619956
 20
49.128230
 30
0.0
 10
60.309128
 20
49.634069
 30
0.0
  0
SPLINE
  5
1fd
100
AcDbEntity
  8
0
 62
7
100
AcDbSpline
 70
8
 71
3
 72
8
 73
4
 74
0
 40
0
 40
0
 40
0
 40
0
 40
1
 40
1
 40
1
 40
1
 10
55.819704
 20
48.633123
 30
0.0
 10
56.031066
 20
48.762240
 30
0.0
 10
56.257728
 20
48.863708
 30
0.0
 10
56.488699
 20
48.953243
 30
0.0
  0
SPLINE
  5
1fe
100
AcDbEntity
  8
0
 62
7
100
AcDbSpline
 70
8
 71
3
 72
8
 73
4
 74
0
 40
0
 40
0
 40
0
 40
0
 40
1
 40
1
 40
1
 40
1
 10
56.488699
 20
48.953243
 30
0.0
 10
56.777379
 20
49.065135
 30
0.0
 10
57.072790
 20
49.158321
 30
0.0
 10
57.371805
 20
49.237511
 30
0.0
  0
SPLINE
  5
1ff
100
AcDbEntity
  8
0
 62
7
100
AcDbSpline
 70
8
 71
3
 72
8
 73
4
 74
0
 40
0
 40
0
 40
0
 40
0
 40
1
 40
1
 40
1
 40
1
 10
57.371805
 20
49.237511
 30
0.0
 10
58.328644
 20
49.490903
 30
0.0
 10
59.322388
 20
49.600916
 30
0.0
 10
60.309128
 20
49.634069
 30
0.0
  0
LWPOLYLINE
  5
200
100
AcDbEntity
  8
0
 62
7
100
AcDbPolyline
 90
2
 70
0
 10
57.346832
 20
44.352694
 30
0.0
 10
58.087971
 20
44.704378
 30
0.0
  0
SPLINE
  5
201
100
AcDbEntity
  8
0
 62
7
100
AcDbSpline
 70
8
 71
3
 72
8
 73
4
 74
0
 40
0
 40
0
 40
0
 40
0
 40
1
 40
1
 40
1
 40
1
 10
54.454303
 20
48.287128
 30
0.0
 10
54.613212
 20
48.065655
 30
0.0
 10
54.920234
 20
48.012274
 30
0.0
 10
55.144571
 20
48.167113
 30
0.0
  0
SPLINE
  5
202
100
AcDbEntity
  8
0
 62
7
100
AcDbSpline
 70
8
 71
3
 72
8
 73
4
 74
0
 40
0
 40
0
 40
0
 40
0
 40
1
 40
1
 40
1
 40
1
 10
54.454303
 20
48.287128
 30
0.0
 10
54.119130
 20
48.754230
 30
0.0
 10
53.769055
 20
49.210456
 30
0.0
 10
53.404618
 20
49.655103
 30
0.0
  0
SPLINE
  5
203
100
AcDbEntity
  8
0
 62
7
100
AcDbSpline
 70
8
 71
3
 72
8
 73
4
 74
0
 40
0
 40
0
 40
0
 40
0
 40
1
 40
1
 40
1
 40
1
 10
53.467366
 20
50.352889
 30
0.0
 10
53.259749
 20
50.176279
 30
0.0
 10
53.231841
 20
49.865920
 30
0.0
 10
53.404618
 20
49.655103
 30
0.0
  0
LWPOLYLINE
  5
204
100
AcDbEntity
  8
0
 62
7
100
AcDbPolyline
 90
2
 70
0
 10
55.144571
 20
48.167113
 30
0.0
 10
55.819704
 20
48.633123
 30
0.0
  0
SPLINE
  5
205
100
AcDbEntity
  8
0
 62
7
100
AcDbSpline
 70
8
 71
3
 72
8
 73
4
 74
0
 40
0
 40
0
 40
0
 40
0
 40
1
 40
1
 40
1
 40
1
 10
54.092231
 20
50.884410
 30
0.0
 10
54.271636
 20
51.055172
 30
0.0
 10
54.428332
 20
51.247842
 30
0.0
 10
54.574582
 20
51.447761
 30
0.0
  0
SPLINE
  5
206
100
AcDbEntity
  8
0
 62
7
100
AcDbSpline
 70
8
 71
3
 72
8
 73
4
 74
0
 40
0
 40
0
 40
0
 40
0
 40
1
 40
1
 40
1
 40
1
 10
54.574582
 20
51.447761
 30
0.0
 10
54.757373
 20
51.697660
 30
0.0
 10
54.923846
 20
51.958883
 30
0.0
 10
55.077726
 20
52.227197
 30
0.0
  0
SPLINE
  5
207
100
AcDbEntity
  8
0
 62
7
100
AcDbSpline
 70
8
 71
3
 72
8
 73
4
 74
0
 40
0
 40
0
 40
0
 40
0
 40
1
 40
1
 40
1
 40
1
 10
55.077726
 20
52.227197
 30
0.0
 10
55.570139
 20
53.085849
 30
0.0
 10
55.933609
 20
54.017262
 30
0.0
 10
56.221013
 20
54.961798
 30
0.0
  0
SPLINE
  5
208
100
AcDbEntity
  8
0
 62
7
100
AcDbSpline
 70
8
 71
3
 72
8
 73
4
 74
0
 40
0
 40
0
 40
0
 40
0
 40
1
 40
1
 40
1
 40
1
 10
56.221013
 20
54.961798
 30
0.0
 10
55.812857
 20
55.392956
 30
0.0
 10
55.392962
 20
55.812848
 30
0.0
 10
54.961803
 20
56.221003
 30
0.0
  0
SPLINE
  5
209
100
AcDbEntity
  8
0
 62
7
100
AcDbSpline
 70
8
 71
3
 72
8
 73
4
 74
0
 40
0
 40
0
 40
0
 40
0
 40
1
 40
1
 40
1
 40
1
 10
50.884416
 20
54.092218
 30
0.0
 10
51.055163
 20
54.271632
 30
0.0
 10
51.247834
 20
54.428319
 30
0.0
 10
51.447765
 20
54.574580
 30
0.0
  0
SPLINE
  5
20a
100
AcDbEntity
  8
0
 62
7
100
AcDbSpline
 70
8
 71
3
 72
8
 73
4
 74
0
 40
0
 40
0
 40
0
 40
0
 40
1
 40
1
 40
1
 40
1
 10
51.447765
 20
54.574580
 30
0.0
 10
51.697649
 20
54.757381
 30
0.0
 10
51.958876
 20
54.923857
 30
0.0
 10
52.227207
 20
55.077712
 30
0.0
  0
SPLINE
  5
20b
100
AcDbEntity
  8
0
 62
7
100
AcDbSpline
 70
8
 71
3
 72
8
 73
4
 74
0
 40
0
 40
0
 40
0
 40
0
 40
1
 40
1
 40
1
 40
1
 10
52.227207
 20
55.077712
 30
0.0
 10
53.085858
 20
55.570128
 30
0.0
 10
54.017264
 20
55.933613
 30
0.0
 10
54.961803
 20
56.221003
 30
0.0
  0
LWPOLYLINE
  5
20c
100
AcDbEntity
  8
0
 62
7
100
AcDbPolyline
 90
2
 70
0
 10
53.467366
 20
50.352889
 30
0.0
 10
54.092231
 20
50.884410
 30
0.0
  0
SPLINE
  5
20d
100
AcDbEntity
  8
0
 62
7
100
AcDbSpline
 70
8
 71
3
 72
8
 73
4
 74
0
 40
0
 40
0
 40
0
 40
0
 40
1
 40
1
 40
1
 40
1
 10
49.655095
 20
53.404619
 30
0.0
 10
49.865910
 20
53.231826
 30
0.0
 10
50.176283
 20
53.259728
 30
0.0
 10
50.352899
 20
53.467352
 30
0.0
  0
SPLINE
  5
20e
100
AcDbEntity
  8
0
 62
7
100
AcDbSpline
 70
8
 71
3
 72
8
 73
4
 74
0
 40
0
 40
0
 40
0
 40
0
 40
1
 40
1
 40
1
 40
1
 10
49.655095
 20
53.404619
 30
0.0
 10
49.210447
 20
53.769055
 30
0.0
 10
48.754220
 20
54.119129
 30
0.0
 10
48.287118
 20
54.454301
 30
0.0
  0
SPLINE
  5
20f
100
AcDbEntity
  8
0
 62
7
100
AcDbSpline
 70
8
 71
3
 72
8
 73
4
 74
0
 40
0
 40
0
 40
0
 40
0
 40
1
 40
1
 40
1
 40
1
 10
48.167123
 20
55.144572
 30
0.0
 10
48.012277
 20
54.920239
 30
0.0
 10
48.065649
 20
54.613216
 30
0.0
 10
48.287118
 20
54.454301
 30
0.0
  0
LWPOLYLINE
  5
210
100
AcDbEntity
  8
0
 62
7
100
AcDbPolyline
 90
2
 70
0
 10
50.352899
 20
53.467352
 30
0.0
 10
50.884416
 20
54.092218
 30
0.0
  0
SPLINE
  5
211
100
AcDbEntity
  8
0
 62
7
100
AcDbSpline
 70
8
 71
3
 72
8
 73
4
 74
0
 40
0
 40
0
 40
0
 40
0
 40
1
 40
1
 40
1
 40
1
 10
48.633129
 20
55.819709
 30
0.0
 10
48.762229
 20
56.031059
 30
0.0
 10
48.863719
 20
56.257727
 30
0.0
 10
48.953240
 20
56.488708
 30
0.0
  0
SPLINE
  5
212
100
AcDbEntity
  8
0
 62
7
100
AcDbSpline
 70
8
 71
3
 72
8
 73
4
 74
0
 40
0
 40
0
 40
0
 40
0
 40
1
 40
1
 40
1
 40
1
 10
48.953240
 20
56.488708
 30
0.0
 10
49.065127
 20
56.777369
 30
0.0
 10
49.158317
 20
57.072776
 30
0.0
 10
49.237505
 20
57.371808
 30
0.0
  0
SPLINE
  5
213
100
AcDbEntity
  8
0
 62
7
100
AcDbSpline
 70
8
 71
3
 72
8
 73
4
 74
0
 40
0
 40
0
 40
0
 40
0
 40
1
 40
1
 40
1
 40
1
 10
49.237505
 20
57.371808
 30
0.0
 10
49.490904
 20
58.328647
 30
0.0
 10
49.600923
 20
59.322396
 30
0.0
 10
49.634070
 20
60.309133
 30
0.0
  0
SPLINE
  5
214
100
AcDbEntity
  8
0
 62
7
100
AcDbSpline
 70
8
 71
3
 72
8
 73
4
 74
0
 40
0
 40
0
 40
0
 40
0
 40
1
 40
1
 40
1
 40
1
 10
49.634070
 20
60.309133
 30
0.0
 10
49.128228
 20
60.619956
 30
0.0
 10
48.613965
 20
60.916859
 30
0.0
 10
48.091858
 20
61.199509
 30
0.0
  0
SPLINE
  5
215
100
AcDbEntity
  8
0
 62
7
100
AcDbSpline
 70
8
 71
3
 72
8
 73
4
 74
0
 40
0
 40
0
 40
0
 40
0
 40
1
 40
1
 40
1
 40
1
 10
44.704375
 20
58.087982
 30
0.0
 10
44.822870
 20
58.305443
 30
0.0
 10
44.968420
 20
58.506685
 30
0.0
 10
45.123687
 20
58.699699
 30
0.0
  0
SPLINE
  5
216
100
AcDbEntity
  8
0
 62
7
100
AcDbSpline
 70
8
 71
3
 72
8
 73
4
 74
0
 40
0
 40
0
 40
0
 40
0
 40
1
 40
1
 40
1
 40
1
 10
45.123687
 20
58.699699
 30
0.0
 10
45.317747
 20
58.940920
 30
0.0
 10
45.526985
 20
59.169334
 30
0.0
 10
45.746346
 20
59.387430
 30
0.0
  0
SPLINE
  5
217
100
AcDbEntity
  8
0
 62
7
100
AcDbSpline
 70
8
 71
3
 72
8
 73
4
 74
0
 40
0
 40
0
 40
0
 40
0
 40
1
 40
1
 40
1
 40
1
 10
45.746346
 20
59.387430
 30
0.0
 10
46.448294
 20
60.085295
 30
0.0
 10
47.253890
 20
60.677433
 30
0.0
 10
48.091858
 20
61.199509
 30
0.0
  0
LWPOLYLINE
  5
218
100
AcDbEntity
  8
0
 62
7
100
AcDbPolyline
 90
2
 70
0
 10
48.167123
 20
55.144572
 30
0.0
 10
48.633129
 20
55.819709
 30
0.0
  0
SPLINE
  5
219
100
AcDbEntity
  8
0
 62
7
100
AcDbSpline
 70
8
 71
3
 72
8
 73
4
 74
0
 40
0
 40
0
 40
0
 40
0
 40
1
 40
1
 40
1
 40
1
 10
43.694909
 20
57.105611
 30
0.0
 10
43.943268
 20
56.993274
 30
0.0
 10
44.235842
 20
57.100565
 30
0.0
 10
44.352695
 20
57.346831
 30
0.0
  0
SPLINE
  5
21a
100
AcDbEntity
  8
0
 62
7
100
AcDbSpline
 70
8
 71
3
 72
8
 73
4
 74
0
 40
0
 40
0
 40
0
 40
0
 40
1
 40
1
 40
1
 40
1
 10
43.694909
 20
57.105611
 30
0.0
 10
43.171089
 20
57.342551
 30
0.0
 10
42.639802
 20
57.562621
 30
0.0
 10
42.101866
 20
57.765482
 30
0.0
  0
SPLINE
  5
21b
100
AcDbEntity
  8
0
 62
7
100
AcDbSpline
 70
8
 71
3
 72
8
 73
4
 74
0
 40
0
 40
0
 40
0
 40
0
 40
1
 40
1
 40
1
 40
1
 10
41.807306
 20
58.401170
 30
0.0
 10
41.715802
 20
58.144406
 30
0.0
 10
41.846817
 20
57.861662
 30
0.0
 10
42.101866
 20
57.765482
 30
0.0
  0
LWPOLYLINE
  5
21c
100
AcDbEntity
  8
0
 62
7
100
AcDbPolyline
 90
2
 70
0
 10
44.352695
 20
57.346831
 30
0.0
 10
44.704375
 20
58.087982
 30
0.0
  0
SPLINE
  5
21d
100
AcDbEntity
  8
0
 62
7
100
AcDbSpline
 70
8
 71
3
 72
8
 73
4
 74
0
 40
0
 40
0
 40
0
 40
0
 40
1
 40
1
 40
1
 40
1
 10
42.082695
 20
59.173912
 30
0.0
 10
42.152692
 20
59.411481
 30
0.0
 10
42.192059
 20
59.656697
 30
0.0
 10
42.218750
 20
59.902945
 30
0.0
  0
SPLINE
  5
21e
100
AcDbEntity
  8
0
 62
7
100
AcDbSpline
 70
8
 71
3
 72
8
 73
4
 74
0
 40
0
 40
0
 40
0
 40
0
 40
1
 40
1
 40
1
 40
1
 10
42.218750
 20
59.902945
 30
0.0
 10
42.252109
 20
60.210761
 30
0.0
 10
42.265665
 20
60.520218
 30
0.0
 10
42.264764
 20
60.829542
 30
0.0
  0
SPLINE
  5
21f
100
AcDbEntity
  8
0
 62
7
100
AcDbSpline
 70
8
 71
3
 72
8
 73
4
 74
0
 40
0
 40
0
 40
0
 40
0
 40
1
 40
1
 40
1
 40
1
 10
42.264764
 20
60.829542
 30
0.0
 10
42.261880
 20
61.819375
 30
0.0
 10
42.110952
 20
62.807726
 30
0.0
 10
41.887582
 20
63.769407
 30
0.0
  0
SPLINE
  5
220
100
AcDbEntity
  8
0
 62
7
100
AcDbSpline
 70
8
 71
3
 72
8
 73
4
 74
0
 40
0
 40
0
 40
0
 40
0
 40
1
 40
1
 40
1
 40
1
 10
41.887582
 20
63.769407
 30
0.0
 10
41.318528
 20
63.938724
 30
0.0
 10
40.744942
 20
64.092416
 30
0.0
 10
40.167469
 20
64.230311
 30
0.0
  0
SPLINE
  5
221
100
AcDbEntity
  8
0
 62
7
100
AcDbSpline
 70
8
 71
3
 72
8
 73
4
 74
0
 40
0
 40
0
 40
0
 40
0
 40
1
 40
1
 40
1
 40
1
 10
37.700740
 20
60.348053
 30
0.0
 10
37.758907
 20
60.588798
 30
0.0
 10
37.847418
 20
60.820837
 30
0.0
 10
37.947438
 20
61.047453
 30
0.0
  0
SPLINE
  5
222
100
AcDbEntity
  8
0
 62
7
100
AcDbSpline
 70
8
 71
3
 72
8
 73
4
 74
0
 40
0
 40
0
 40
0
 40
0
 40
1
 40
1
 40
1
 40
1
 10
37.947438
 20
61.047453
 30
0.0
 10
38.072449
 20
61.330689
 30
0.0
 10
38.215441
 20
61.605485
 30
0.0
 10
38.370883
 20
61.872900
 30
0.0
  0
SPLINE
  5
223
100
AcDbEntity
  8
0
 62
7
100
AcDbSpline
 70
8
 71
3
 72
8
 73
4
 74
0
 40
0
 40
0
 40
0
 40
0
 40
1
 40
1
 40
1
 40
1
 10
38.370883
 20
61.872900
 30
0.0
 10
38.868290
 20
62.728668
 30
0.0
 10
39.493177
 20
63.509163
 30
0.0
 10
40.167469
 20
64.230311
 30
0.0
  0
LWPOLYLINE
  5
224
100
AcDbEntity
  8
0
 62
7
100
AcDbPolyline
 90
2
 70
0
 10
41.807306
 20
58.401170
 30
0.0
 10
42.082695
 20
59.173912
 30
0.0
  0
LWPOLYLINE
  5
225
100
AcDbEntity
  8
0
 62
7
100
AcDbPolyline
 90
2
 70
0
 10
37.552864
 20
59.541127
 30
0.0
 10
37.700740
 20
60.348053
 30
0.0
  0
ENDSEC
  0
SECTION
  2
OBJECTS
  0
DICTIONARY
  5
C
330
0
100
AcDbDictionary
  3
ACAD_GROUP
350
D
  3
ACAD_MLINESTYLE
350
17
  0
DICTIONARY
  5
D
330
C
100
AcDbDictionary
  0
DICTIONARY
  5
1A
330
C
100
AcDbDictionary
  0
DICTIONARY
  5
17
330
C
100
AcDbDictionary
  3
STANDARD
350
18
  0
DICTIONARY
  5
19
330
C
100
AcDbDictionary
  0
ENDSEC
  0
EOF
